<svg width="40" height="41" viewBox="0 0 40 41" fill="none" xmlns="http://www.w3.org/2000/svg">
<g clip-path="url(#clip0_519_6084)">
<path d="M19.974 40.2012L2.67377 30.1736V10.1736L19.974 0.201172L37.2743 10.1736V30.1736L37.1641 30.2287L19.974 40.2012ZM3.22473 29.8981L19.974 39.54L36.7234 29.843V10.5042L19.974 0.862329L3.22473 10.5042V29.8981Z" fill="#00CC66"/>
<path d="M14.8492 39.4845L0.689392 25.3798L5.86846 6.09606L25.1522 0.916992L39.312 15.0768L39.2569 15.187L34.1329 34.3605L14.8492 39.4845ZM1.29545 25.2145L15.0145 38.8784L33.6922 33.8647L38.7059 15.187L24.9869 1.46796L6.30923 6.48173L1.29545 25.2145Z" fill="#00CC66"/>
<path d="M25.1522 39.4849L5.86846 34.3058L0.689392 15.0221L14.8492 0.862305L34.1329 6.04137L34.188 6.20666L39.312 25.3802L25.1522 39.4849ZM6.30923 33.8651L24.9869 38.8788L38.7059 25.2149L33.6922 6.53724L15.0145 1.46837L1.29545 15.1874L6.30923 33.8651Z" fill="#00CC66"/>
<path d="M11.7645 24.7741C10.7728 24.7741 9.94635 23.9476 9.94635 22.9559C9.94635 21.9641 10.7728 21.1377 11.7645 21.1377C12.7563 21.1377 13.5827 21.9641 13.5827 22.9559C13.5827 23.9476 12.8114 24.7741 11.7645 24.7741ZM11.7645 21.6336C11.0483 21.6336 10.4973 22.1845 10.4973 22.9008C10.4973 23.617 11.0483 24.168 11.7645 24.168C12.4808 24.168 13.0317 23.617 13.0317 22.9008C13.0317 22.1845 12.4808 21.6336 11.7645 21.6336Z" fill="#00CC66"/>
<path d="M18.3747 37.7218H17.8237V24.4987C17.8237 23.7273 17.2177 23.1213 16.4463 23.1213H13.3609V22.5703H16.4463C17.4931 22.5703 18.3747 23.4519 18.3747 24.4987V37.7218Z" fill="#00CC66"/>
<path d="M27.63 14.8014C26.6383 14.8014 25.8118 13.975 25.8118 12.9832C25.8118 11.9915 26.6383 11.165 27.63 11.165C28.6217 11.165 29.4482 11.9915 29.4482 12.9832C29.4482 13.975 28.6217 14.8014 27.63 14.8014ZM27.63 11.6609C26.9138 11.6609 26.3628 12.2119 26.3628 12.9281C26.3628 13.6444 26.9138 14.1953 27.63 14.1953C28.3463 14.1953 28.8972 13.6444 28.8972 12.9281C28.8972 12.2119 28.3463 11.6609 27.63 11.6609Z" fill="#00CC66"/>
<path d="M34.0777 30.5046H33.5267V14.5817C33.5267 13.8103 32.9207 13.2043 32.1493 13.2043H29.0639V12.6533H32.1493C33.1961 12.6533 34.0777 13.5349 34.0777 14.5817V30.5046Z" fill="#00CC66"/>
<path d="M30.3301 24.7741C29.3384 24.7741 28.512 23.9476 28.512 22.9559C28.512 21.9641 29.3384 21.1377 30.3301 21.1377C31.3219 21.1377 32.1483 21.9641 32.1483 22.9559C32.1483 23.9476 31.3219 24.7741 30.3301 24.7741ZM30.3301 21.6336C29.6139 21.6336 29.0629 22.1845 29.0629 22.9008C29.0629 23.617 29.6139 24.168 30.3301 24.168C31.0464 24.168 31.5974 23.617 31.5974 22.9008C31.5974 22.1845 30.9913 21.6336 30.3301 21.6336Z" fill="#00CC66"/>
<path d="M24.2693 37.7218H23.7184V24.4987C23.7184 23.4519 24.5999 22.5703 25.6468 22.5703H28.7322V23.1213H25.6468C24.8754 23.1213 24.2693 23.7273 24.2693 24.4987V37.7218Z" fill="#00CC66"/>
<path d="M12.3128 10.7243C11.321 10.7243 10.4946 9.89781 10.4946 8.90607C10.4946 7.91434 11.321 7.08789 12.3128 7.08789C13.3045 7.08789 14.1309 7.91434 14.1309 8.90607C14.1309 9.89781 13.3596 10.7243 12.3128 10.7243ZM12.3128 7.63885C11.5965 7.63885 11.0455 8.18982 11.0455 8.90607C11.0455 9.62233 11.5965 10.1733 12.3128 10.1733C13.029 10.1733 13.58 9.62233 13.58 8.90607C13.58 8.18982 13.029 7.63885 12.3128 7.63885Z" fill="#00CC66"/>
<path d="M16.9962 9.18195H13.9659V8.63099H16.9962C17.7676 8.63099 18.3737 8.02493 18.3737 7.25358V2.95605H18.9246V7.25358C18.9246 8.30041 18.0431 9.18195 16.9962 9.18195Z" fill="#00CC66"/>
<path d="M30.3301 19.9811C29.3384 19.9811 28.512 19.1546 28.512 18.1629C28.512 17.1712 29.3384 16.3447 30.3301 16.3447C31.3219 16.3447 32.1483 17.1712 32.1483 18.1629C32.1483 19.1546 31.3219 19.9811 30.3301 19.9811ZM30.3301 16.8406C29.6139 16.8406 29.0629 17.3916 29.0629 18.1078C29.0629 18.8241 29.6139 19.375 30.3301 19.375C31.0464 19.375 31.5974 18.8241 31.5974 18.1078C31.5974 17.4467 30.9913 16.8406 30.3301 16.8406Z" fill="#00CC66"/>
<path d="M27.63 29.4577C26.6383 29.4577 25.8118 28.6312 25.8118 27.6395C25.8118 26.6477 26.6383 25.8213 27.63 25.8213C28.6217 25.8213 29.4482 26.6477 29.4482 27.6395C29.4482 28.6312 28.6217 29.4577 27.63 29.4577ZM27.63 26.3172C26.9138 26.3172 26.3628 26.8681 26.3628 27.5844C26.3628 28.3006 26.9138 28.8516 27.63 28.8516C28.3463 28.8516 28.8972 28.3006 28.8972 27.5844C28.8972 26.8681 28.3463 26.3172 27.63 26.3172Z" fill="#00CC66"/>
<path d="M28.7322 18.4935H25.6468C24.5999 18.4935 23.7184 17.612 23.7184 16.5651V2.79102H24.2693V16.5651C24.2693 17.3365 24.8754 17.9425 25.6468 17.9425H28.7322V18.4935Z" fill="#00CC66"/>
<path d="M6.75092 21.5231C5.75919 21.5231 4.93274 20.6966 4.93274 19.7049C4.93274 18.7132 5.75919 17.8867 6.75092 17.8867C7.74266 17.8867 8.5691 18.7132 8.5691 19.7049C8.5691 20.6966 7.74266 21.5231 6.75092 21.5231ZM6.75092 18.3826C6.03467 18.3826 5.4837 18.9336 5.4837 19.6498C5.4837 20.3661 6.03467 20.917 6.75092 20.917C7.46717 20.917 8.01814 20.3661 8.01814 19.6498C8.01814 18.9336 7.46717 18.3826 6.75092 18.3826Z" fill="#00CC66"/>
<path d="M20.0838 36.9502C19.9185 36.9502 19.8083 36.84 19.8083 36.6747V36.1237C19.8083 35.9585 19.9185 35.8483 20.0838 35.8483C20.2491 35.8483 20.3593 35.9585 20.3593 36.1237V36.6747C20.3593 36.84 20.2491 36.9502 20.0838 36.9502ZM20.0838 34.1954C19.9185 34.1954 19.8083 34.0852 19.8083 33.9199V33.3689C19.8083 33.2036 19.9185 33.0934 20.0838 33.0934C20.2491 33.0934 20.3593 33.2036 20.3593 33.3689V33.9199C20.3593 34.0852 20.2491 34.1954 20.0838 34.1954ZM20.0838 31.4405C19.9185 31.4405 19.8083 31.3304 19.8083 31.1651V30.6141C19.8083 30.4488 19.9185 30.3386 20.0838 30.3386C20.2491 30.3386 20.3593 30.4488 20.3593 30.6141V31.1651C20.3593 31.3304 20.2491 31.4405 20.0838 31.4405ZM20.0838 28.6857C19.9185 28.6857 19.8083 28.5755 19.8083 28.4102V27.8593C19.8083 27.694 19.9185 27.5838 20.0838 27.5838C20.2491 27.5838 20.3593 27.694 20.3593 27.8593V28.4102C20.3593 28.5755 20.2491 28.6857 20.0838 28.6857ZM20.0838 25.9309C19.9185 25.9309 19.8083 25.8207 19.8083 25.6554V25.1045C19.8083 24.9392 19.9185 24.829 20.0838 24.829C20.2491 24.829 20.3593 24.9392 20.3593 25.1045V25.6554C20.3593 25.8207 20.2491 25.9309 20.0838 25.9309ZM20.0838 23.1761C19.9185 23.1761 19.8083 23.0659 19.8083 22.9006V22.3496C19.8083 22.1843 19.9185 22.0742 20.0838 22.0742C20.2491 22.0742 20.3593 22.1843 20.3593 22.3496V22.9006C20.3593 23.0659 20.2491 23.1761 20.0838 23.1761ZM19.7532 20.5315C19.6981 20.5315 19.5879 20.4764 19.5328 20.4213C19.4226 20.3111 19.3124 20.2009 19.2022 20.0907C19.092 20.0356 19.0369 19.8152 19.1471 19.705C19.2573 19.5948 19.4226 19.5397 19.5328 19.6499C19.6981 19.7601 19.8634 19.9254 20.0287 20.0907C20.1389 20.2009 20.0838 20.3662 19.9736 20.4764C19.8634 20.4764 19.8083 20.5315 19.7532 20.5315ZM17.1637 19.8703H16.6127C16.4474 19.8703 16.3372 19.7601 16.3372 19.5948C16.3372 19.4295 16.4474 19.3193 16.6127 19.3193H17.1637C17.329 19.3193 17.4391 19.4295 17.4391 19.5948C17.4391 19.7601 17.329 19.8703 17.1637 19.8703ZM14.4088 19.8703H13.8579C13.6926 19.8703 13.5824 19.7601 13.5824 19.5948C13.5824 19.4295 13.6926 19.3193 13.8579 19.3193H14.4088C14.5741 19.3193 14.6843 19.4295 14.6843 19.5948C14.6843 19.7601 14.5741 19.8703 14.4088 19.8703ZM11.654 19.8703H11.1031C10.9378 19.8703 10.8276 19.7601 10.8276 19.5948C10.8276 19.4295 10.9378 19.3193 11.1031 19.3193H11.654C11.8193 19.3193 11.9295 19.4295 11.9295 19.5948C11.9295 19.7601 11.8193 19.8703 11.654 19.8703ZM8.8992 19.8703H8.34824C8.18295 19.8703 8.07275 19.7601 8.07275 19.5948C8.07275 19.4295 8.18295 19.3193 8.34824 19.3193H8.8992C9.06449 19.3193 9.17468 19.4295 9.17468 19.5948C9.17468 19.7601 9.06449 19.8703 8.8992 19.8703Z" fill="#00CC66"/>
<path d="M14.8483 18.2731C13.8565 18.2731 13.0301 17.4466 13.0301 16.4549C13.0301 15.4632 13.8565 14.6367 14.8483 14.6367C15.84 14.6367 16.6665 15.4632 16.6665 16.4549C16.6665 17.4466 15.8951 18.2731 14.8483 18.2731ZM14.8483 15.1326C14.132 15.1326 13.5811 15.6836 13.5811 16.3998C13.5811 17.1161 14.132 17.667 14.8483 17.667C15.5645 17.667 16.1155 17.1161 16.1155 16.3998C16.1706 15.6836 15.5645 15.1326 14.8483 15.1326Z" fill="#00CC66"/>
<path d="M22.3415 37.7222H21.7905V17.9977C21.7905 17.2264 21.1845 16.6203 20.4131 16.6203H16.5013V16.0693H20.4131C21.46 16.0693 22.3415 16.9509 22.3415 17.9977V37.7222Z" fill="#00CC66"/>
<path d="M27.6861 35.683C27.5208 35.683 27.4106 35.5728 27.4106 35.4075V34.8566C27.4106 34.6913 27.5208 34.5811 27.6861 34.5811C27.8514 34.5811 27.9616 34.6913 27.9616 34.8566V35.4075C27.9616 35.5728 27.8514 35.683 27.6861 35.683ZM27.6861 32.9282C27.5208 32.9282 27.4106 32.818 27.4106 32.6527V32.1018C27.4106 31.9365 27.5208 31.8263 27.6861 31.8263C27.8514 31.8263 27.9616 31.9365 27.9616 32.1018V32.6527C27.9616 32.818 27.8514 32.9282 27.6861 32.9282ZM27.6861 30.1734C27.5208 30.1734 27.4106 30.0632 27.4106 29.8979V29.4571C27.4106 29.2918 27.5208 29.1816 27.6861 29.1816C27.8514 29.1816 27.9616 29.2918 27.9616 29.4571V29.8979C27.9616 30.0632 27.8514 30.1734 27.6861 30.1734Z" fill="#00CC66"/>
<path d="M14.2415 30.945C13.2498 30.945 12.4233 30.1185 12.4233 29.1268C12.4233 28.135 13.2498 27.3086 14.2415 27.3086C15.2333 27.3086 16.0597 28.135 16.0597 29.1268C16.0597 30.1185 15.2884 30.945 14.2415 30.945ZM14.2415 27.8045C13.5253 27.8045 12.9743 28.3554 12.9743 29.0717C12.9743 29.7879 13.5253 30.3389 14.2415 30.3389C14.9578 30.3389 15.5087 29.7879 15.5087 29.0717C15.5638 28.4105 14.9578 27.8045 14.2415 27.8045Z" fill="#00CC66"/>
<path d="M12.4245 28.9062H5.37213V29.4572H12.4245V28.9062Z" fill="#00CC66"/>
<path d="M19.1472 14.1959C18.1554 14.1959 17.329 13.3695 17.329 12.3778C17.329 11.386 18.1554 10.5596 19.1472 10.5596C20.1389 10.5596 20.9653 11.386 20.9653 12.3778C20.9653 13.3695 20.1389 14.1959 19.1472 14.1959ZM19.1472 11.1105C18.4309 11.1105 17.8799 11.6615 17.8799 12.3778C17.8799 13.094 18.4309 13.645 19.1472 13.645C19.8634 13.645 20.4144 13.094 20.4144 12.3778C20.4144 11.6615 19.8634 11.1105 19.1472 11.1105Z" fill="#00CC66"/>
<path d="M16.28 12.7629H15.729C15.5637 12.7629 15.4536 12.6527 15.4536 12.4874C15.4536 12.3221 15.5637 12.2119 15.729 12.2119H16.28C16.4453 12.2119 16.5555 12.3221 16.5555 12.4874C16.5555 12.6527 16.3902 12.7629 16.28 12.7629ZM13.5252 12.7629H12.9742C12.8089 12.7629 12.6987 12.6527 12.6987 12.4874C12.6987 12.3221 12.8089 12.2119 12.9742 12.2119H13.5252C13.6905 12.2119 13.8007 12.3221 13.8007 12.4874C13.8007 12.6527 13.6354 12.7629 13.5252 12.7629ZM10.7704 12.7629H10.2194C10.0541 12.7629 9.94391 12.6527 9.94391 12.4874C9.94391 12.3221 10.0541 12.2119 10.2194 12.2119H10.7704C10.9356 12.2119 11.0458 12.3221 11.0458 12.4874C11.0458 12.6527 10.8805 12.7629 10.7704 12.7629ZM8.01553 12.7629H7.46457C7.29928 12.7629 7.18909 12.6527 7.18909 12.4874C7.18909 12.3221 7.29928 12.2119 7.46457 12.2119H8.01553C8.18082 12.2119 8.29101 12.3221 8.29101 12.4874C8.29101 12.6527 8.12573 12.7629 8.01553 12.7629ZM5.26071 12.7629H4.70975C4.54446 12.7629 4.43427 12.6527 4.43427 12.4874C4.43427 12.3221 4.54446 12.2119 4.70975 12.2119H5.26071C5.426 12.2119 5.53619 12.3221 5.53619 12.4874C5.53619 12.6527 5.3709 12.7629 5.26071 12.7629Z" fill="#00CC66"/>
</g>
<defs>
<clipPath id="clip0_519_6084">
<rect width="38.6226" height="40" fill="white" transform="translate(0.688782 0.201172)"/>
</clipPath>
</defs>
</svg>
