<svg width="40" height="41" viewBox="0 0 40 41" fill="none" xmlns="http://www.w3.org/2000/svg">
<path d="M18.7023 33.4063L17.8796 31.8705C17.2215 31.8157 16.5633 31.706 15.9051 31.5415L14.5888 32.6933L11.9562 31.4866V29.7316C11.4077 29.3476 10.9141 28.9088 10.4205 28.4701L8.77508 28.7991L7.1297 26.4407L8.00722 24.9599C7.73301 24.3566 7.51361 23.7533 7.2942 23.0951L5.64883 22.5466L5.37457 19.6946L6.85545 18.8719C6.9103 18.2138 7.02 17.5556 7.1845 16.8974L6.03273 15.5811L7.23935 12.9485H8.99448C9.37839 12.4 9.81715 11.9064 10.256 11.4127L9.92685 9.71252L12.2853 8.06709L13.7661 8.94466C14.3694 8.6704 14.9727 8.45105 15.6309 8.23164L16.1794 6.58626L19.196 6.31201L20.0186 7.84774C20.6768 7.90259 21.3349 8.01224 21.9931 8.17679L23.3094 7.02502L25.9421 8.23164V9.98672C26.4905 10.3707 26.9842 10.8094 27.4778 11.2482L29.178 10.9191L30.8234 13.2775L29.9459 14.7584C30.2201 15.3617 30.4395 15.965 30.6589 16.6232L32.3043 17.1716L32.5785 20.0237L31.0428 20.8464C30.9879 21.5045 30.8783 22.1627 30.7137 22.8208L31.8655 24.1372L30.6589 26.7698H28.9038C28.5199 27.3183 28.0811 27.8119 27.6423 28.3055L27.9714 30.0058L25.613 31.6512L24.1321 30.7736C23.5288 31.0479 22.9255 31.2672 22.2674 31.4866L21.7189 33.132L18.7023 33.4063ZM15.6309 30.3349L15.9051 30.4445C16.673 30.6639 17.4408 30.7736 18.2087 30.8285H18.4829L19.2508 32.2545L20.7316 32.1448L21.2801 30.6091L21.5543 30.5542C22.3222 30.3897 23.0901 30.1155 23.7482 29.7316L24.0224 29.6219L25.3936 30.4445L26.6002 29.6219L26.2712 28.0313L26.4905 27.8119C27.039 27.2634 27.5875 26.6601 28.0262 26.0019L28.1908 25.7277H29.7813L30.3846 24.4114L29.3426 23.2048L29.4523 22.9305C29.6716 22.1627 29.7813 21.3949 29.8362 20.627V20.3527L31.2622 19.5849L31.1525 18.1041L29.6168 17.5556V17.2265C29.4523 16.4586 29.178 15.6908 28.7941 15.0327L28.6844 14.7584L29.5071 13.3872L28.6844 12.1806L27.039 12.4549L26.8745 12.2355C26.326 11.687 25.7227 11.1385 25.0645 10.6997L24.7903 10.5352V8.94466L23.474 8.34135L22.2674 9.38341L21.9931 9.27371C21.2253 9.05436 20.4574 8.94466 19.6896 8.8898H19.4153L18.6475 7.46378L17.1666 7.57348L16.6182 9.10921L16.3439 9.16406C15.576 9.32856 14.8082 9.60282 14.1501 9.98672L13.8758 10.0964L12.5046 9.27371L11.298 10.0964L11.6271 11.687L11.4077 11.9064C10.8593 12.4549 10.3108 13.0582 9.872 13.7163L9.70749 13.9905H8.11692L7.51361 15.3069L8.55568 16.5135L8.39117 16.8426C8.17177 17.6104 8.06207 18.3783 8.00722 19.1461V19.4204L6.58119 20.243L6.69089 21.7239L8.22662 22.2724L8.28147 22.5466C8.44602 23.3145 8.72023 24.0823 9.10414 24.7405L9.21384 25.0147L8.39117 26.3859L9.21384 27.5925L10.8044 27.2634L11.0238 27.4828C11.5723 28.0313 12.1756 28.5797 12.8337 29.0185L13.108 29.183V30.7736L14.4243 31.3769L15.6309 30.3349Z" fill="#00CC66"/>
<path d="M18.9764 26.1115C15.521 26.1115 12.7239 23.3143 12.7239 19.859C12.7239 16.4036 15.521 13.6064 18.9764 13.6064C22.4317 13.6064 25.2289 16.4036 25.2289 19.859C25.2289 23.3143 22.3769 26.1115 18.9764 26.1115ZM18.9764 14.7034C16.1243 14.7034 13.8208 17.0069 13.8208 19.859C13.8208 22.711 16.1243 25.0145 18.9764 25.0145C21.8284 25.0145 24.132 22.711 24.132 19.859C24.132 17.0069 21.7736 14.7034 18.9764 14.7034Z" fill="#00CC66"/>
<path d="M18.9765 38.2329C18.812 38.2329 18.7023 38.2329 18.5377 38.2329C18.2086 38.2329 17.9893 37.9587 17.9893 37.6845C17.9893 37.4102 18.2635 37.136 18.5377 37.136C18.6474 37.136 18.812 37.136 18.9217 37.136H19.0314C19.3056 37.136 19.5798 37.3553 19.5798 37.6845C19.5798 38.0135 19.3604 38.2329 19.0314 38.2329H18.9765ZM22.377 37.9039C22.1028 37.9039 21.8834 37.7393 21.8286 37.4651C21.7737 37.1908 21.9931 36.8617 22.2673 36.8069C22.4319 36.752 22.5964 36.752 22.7609 36.6972C23.0352 36.6423 23.3642 36.8069 23.4191 37.136C23.4739 37.4102 23.3094 37.7393 22.9803 37.7942C22.8158 37.849 22.5964 37.849 22.4319 37.9039H22.377ZM15.3018 37.849C15.2469 37.849 15.2469 37.849 15.1921 37.849C15.0275 37.7942 14.8081 37.7942 14.6436 37.7393C14.3694 37.6845 14.15 37.3553 14.2597 37.0811C14.3694 36.8069 14.6436 36.5875 14.9178 36.6972C15.0824 36.752 15.2469 36.752 15.4115 36.8069C15.6857 36.8617 15.9051 37.136 15.8503 37.4651C15.7406 37.6845 15.5212 37.849 15.3018 37.849ZM26.0517 36.8069C25.8323 36.8069 25.613 36.6972 25.5581 36.4778C25.4484 36.2036 25.5581 35.8745 25.8323 35.7648C25.9969 35.71 26.1614 35.6003 26.326 35.5454C26.6002 35.4357 26.9293 35.5454 27.0389 35.8197C27.1486 36.0939 27.0389 36.423 26.7647 36.5327C26.6002 36.5875 26.4356 36.6972 26.2711 36.752C26.1614 36.8069 26.1066 36.8069 26.0517 36.8069ZM11.627 36.6972C11.5722 36.6972 11.4625 36.6972 11.4077 36.6423C11.2431 36.5875 11.0786 36.4778 10.9141 36.423C10.6398 36.3133 10.5301 35.9842 10.6398 35.71C10.7495 35.4357 11.0786 35.3261 11.3528 35.4357C11.5174 35.4906 11.6819 35.6003 11.8464 35.6551C12.1207 35.7648 12.2303 36.0939 12.1207 36.3681C12.011 36.5875 11.8464 36.6972 11.627 36.6972ZM29.3974 34.997C29.2328 34.997 29.0683 34.8873 28.9586 34.7776C28.7941 34.5033 28.8489 34.1742 29.1231 34.0097C29.2877 33.9 29.3974 33.7903 29.5619 33.6806C29.7813 33.5161 30.1652 33.5709 30.3297 33.7903C30.4943 34.0097 30.4394 34.3936 30.22 34.5582C30.0555 34.6679 29.891 34.7776 29.7813 34.8873C29.6167 34.9421 29.5071 34.997 29.3974 34.997Z" fill="#00CC66"/>
<path d="M12.1756 34.0094L7.7879 33.9546L9.92689 37.7939L12.1756 34.0094Z" fill="#00CC66"/>
<path d="M37.1855 17.2814C36.9113 17.2814 36.6919 17.062 36.637 16.7877C36.637 16.6232 36.5822 16.4587 36.5822 16.2393C36.5273 15.9651 36.7467 15.636 37.0209 15.5811C37.2952 15.5263 37.6243 15.7457 37.6791 16.0199C37.734 16.1844 37.734 16.4038 37.7888 16.5684C37.8437 16.8426 37.6243 17.1717 37.2952 17.1717C37.2403 17.2814 37.2403 17.2814 37.1855 17.2814ZM36.2531 13.5518C36.0337 13.5518 35.8143 13.3873 35.7595 13.1679C35.7046 13.0033 35.6498 12.8388 35.595 12.6743C35.4853 12.4 35.595 12.0709 35.924 11.9612C36.2531 11.8515 36.5273 11.9612 36.637 12.2903C36.6919 12.4549 36.7467 12.6194 36.8564 12.8388C36.9661 13.113 36.8016 13.4421 36.5273 13.5518C36.4176 13.5518 36.3079 13.5518 36.2531 13.5518ZM34.6077 10.0965C34.4431 10.0965 34.2238 9.98676 34.1689 9.82221C34.0592 9.6577 34.0044 9.548 33.8947 9.38345C33.6753 9.16405 33.7301 8.78014 34.0044 8.61559C34.2786 8.45103 34.6077 8.50589 34.7723 8.78014C34.882 8.94469 34.9917 9.10919 35.1013 9.27375C35.2659 9.548 35.1562 9.87706 34.9368 10.0416C34.7723 10.0965 34.7174 10.0965 34.6077 10.0965ZM32.2493 7.07991C32.0848 7.07991 31.9751 7.02506 31.8654 6.91536C31.7557 6.80566 31.5911 6.6411 31.4814 6.5314C31.262 6.31205 31.262 5.98296 31.4814 5.76357C31.7009 5.54418 32.0299 5.54418 32.2493 5.76357C32.359 5.87326 32.5235 6.0378 32.6332 6.14749C32.8526 6.3669 32.8526 6.69595 32.6332 6.91536C32.5235 7.02506 32.359 7.07991 32.2493 7.07991ZM29.3424 4.61179C29.2328 4.61179 29.1231 4.55694 29.0134 4.5021C28.8488 4.3924 28.7391 4.28271 28.5746 4.22786C28.3003 4.06332 28.2455 3.73424 28.41 3.46001C28.5746 3.18578 28.9037 3.13093 29.1779 3.29547C29.3424 3.40516 29.507 3.51486 29.6715 3.62455C29.9457 3.78909 30.0006 4.11817 29.8361 4.3924C29.6715 4.5021 29.507 4.61179 29.3424 4.61179ZM25.942 2.80185C25.8871 2.80185 25.7774 2.80185 25.7226 2.747C25.558 2.69216 25.3934 2.58246 25.2289 2.52762C24.9547 2.41793 24.7901 2.08885 24.8998 1.81461C25.0095 1.54038 25.3386 1.37584 25.6129 1.48553C25.7774 1.54038 25.942 1.59522 26.1613 1.70492C26.4356 1.81461 26.6001 2.14369 26.4356 2.41793C26.3807 2.63731 26.1613 2.80185 25.942 2.80185Z" fill="#00CC66"/>
<path d="M35.2123 18.9819L36.9674 22.9857L39.5452 19.4207L35.2123 18.9819Z" fill="#00CC66"/>
<path d="M0.877545 23.3692C0.603315 23.3692 0.383926 23.2047 0.32908 22.9304C0.274233 22.7659 0.274233 22.5465 0.219387 22.382C0.16454 22.1078 0.383926 21.7787 0.658161 21.7787C0.932391 21.7238 1.26147 21.9432 1.26147 22.2175C1.31632 22.382 1.31632 22.5465 1.37117 22.7659C1.42601 23.0401 1.26147 23.3692 0.932391 23.4241C0.932391 23.3692 0.932391 23.3692 0.877545 23.3692ZM0.548464 19.53C0.219387 19.53 0 19.2557 0 18.9815C0 18.817 0 18.5976 0 18.433C0 18.1039 0.274233 17.8845 0.548464 17.8845C0.877545 17.8845 1.09693 18.1588 1.09693 18.433C1.09693 18.5976 1.09693 18.7621 1.09693 18.9815C1.09693 19.3106 0.822699 19.53 0.548464 19.53ZM0.987241 15.7456C0.932391 15.7456 0.932391 15.7456 0.877545 15.7456C0.603315 15.6907 0.383926 15.3616 0.438773 15.0874C0.493618 14.9228 0.548464 14.7034 0.548464 14.5389C0.603315 14.2647 0.932391 14.0453 1.20663 14.155C1.48086 14.2098 1.70025 14.5389 1.59055 14.8131C1.53571 14.9777 1.48086 15.1422 1.48086 15.3067C1.48086 15.581 1.26147 15.7456 0.987241 15.7456ZM2.24871 12.1256C2.19387 12.1256 2.08417 12.1256 2.02932 12.0708C1.75509 11.9611 1.6454 11.632 1.75509 11.3578C1.80994 11.1933 1.91963 11.0287 1.97448 10.8642C2.08417 10.59 2.41325 10.4803 2.68749 10.6448C2.96172 10.7545 3.07141 11.0836 2.90687 11.3578C2.85203 11.5223 2.74233 11.6869 2.68749 11.8514C2.63264 12.016 2.4681 12.1256 2.24871 12.1256ZM4.22319 8.83484C4.1135 8.83484 4.00381 8.78003 3.89411 8.72518C3.67473 8.56063 3.61988 8.17672 3.78442 7.95732C3.89411 7.79277 4.00381 7.68307 4.1135 7.51856C4.27804 7.29916 4.66198 7.24431 4.88133 7.40886C5.10074 7.57337 5.15559 7.95732 4.99103 8.17672C4.88133 8.34123 4.77168 8.45093 4.66198 8.61548C4.55227 8.72518 4.38773 8.83484 4.22319 8.83484ZM6.80097 5.98283C6.63646 5.98283 6.47191 5.92799 6.36221 5.8183C6.14281 5.59891 6.19766 5.26983 6.41706 5.05044C6.58161 4.94075 6.69131 4.77621 6.85582 4.66652C7.07522 4.44713 7.45913 4.50198 7.62368 4.72136C7.84308 4.94075 7.78823 5.32468 7.56883 5.48922C7.45913 5.59891 7.29462 5.7086 7.18492 5.8183C7.07522 5.92799 6.91067 5.98283 6.80097 5.98283Z" fill="#00CC66"/>
<path d="M9.98266 5.70857L12.3959 2.08869L8.00818 1.81445L9.98266 5.70857Z" fill="#00CC66"/>
</svg>
