<svg xmlns="http://www.w3.org/2000/svg" version="1.1" xmlns:xlink="http://www.w3.org/1999/xlink" width="2000" height="171" viewBox="0 0 2000 171"><g transform="matrix(1,0,0,1,-1.2121212121213603,-2.295113467952177)"><svg viewBox="0 0 396 34" data-background-color="#000000" preserveAspectRatio="xMidYMid meet" height="171" width="2000" xmlns="http://www.w3.org/2000/svg" xmlns:xlink="http://www.w3.org/1999/xlink"><g id="tight-bounds" transform="matrix(1,0,0,1,0.24000000000003752,0.45633835035306447)"><svg viewBox="0 0 395.5199999999999 33.08732329929387" height="33.08732329929387" width="395.5199999999999"><g><svg viewBox="0 0 462.44480096296405 38.68593405526699" height="33.08732329929387" width="395.5199999999999"><g><rect width="1.8619750563849575" height="23.64090754207355" x="60.18854565426248" y="7.522513256596721" fill="#141414" opacity="1" stroke-width="0" stroke="transparent" fill-opacity="1" class="rect-yte-0" data-fill-palette-color="secondary" rx="1%" id="yte-0" data-palette-color="#141414"></rect></g><g transform="matrix(1,0,0,1,66.92480096296407,7.581321484313321)"><svg viewBox="0 0 395.52 23.52329108664035" height="23.52329108664035" width="395.52"><g id="textblocktransform"><svg viewBox="0 0 395.52 23.52329108664035" height="23.52329108664035" width="395.52" id="textblock"><g><svg viewBox="0 0 395.52 23.52329108664035" height="23.52329108664035" width="395.52"><g transform="matrix(1,0,0,1,0,0)"><svg width="395.52" viewBox="-1 -42 963.52 58.25" height="23.52329108664035" data-palette-color="#ffffff"><path d="M9.6 12.25L9.6 12.25Q8.05 12.25 6.18 12 4.3 11.75 3 11.4L3 11.4 3 7.45Q3.9 7.75 4.93 7.98 5.95 8.2 7.03 8.35 8.1 8.5 9.1 8.5L9.1 8.5Q11.35 8.5 12.73 7.78 14.1 7.05 14.73 5.58 15.35 4.1 15.35 1.85L15.35 1.85 15.35-23.05 6.6-23.7 6.6-26.8 19.85-26.8 19.85 2.6Q19.85 7.25 17.18 9.75 14.5 12.25 9.6 12.25ZM17.1-31.65L17.1-31.65Q15.8-31.65 14.9-32.45 14-33.25 14-34.85L14-34.85Q14-36.45 14.88-37.23 15.75-38 17.1-38L17.1-38Q18.4-38 19.33-37.23 20.25-36.45 20.25-34.85L20.25-34.85Q20.25-33.2 19.3-32.43 18.35-31.65 17.1-31.65ZM45.05 0.5L45.05 0.5Q42.45 0.5 40.2-0.35 37.95-1.2 36.27-2.95 34.6-4.7 33.67-7.33 32.75-9.95 32.75-13.5L32.75-13.5Q32.75-18.15 34.32-21.2 35.9-24.25 38.65-25.78 41.4-27.3 44.9-27.3L44.9-27.3Q48.4-27.3 51.2-25.78 54-24.25 55.62-21.18 57.25-18.1 57.25-13.35L57.25-13.35Q57.25-9.85 56.32-7.25 55.4-4.65 53.77-2.93 52.15-1.2 49.92-0.35 47.7 0.5 45.05 0.5ZM45-3.15L45-3.15Q47.6-3.15 49.3-4.4 51-5.65 51.85-7.98 52.7-10.3 52.7-13.45L52.7-13.45Q52.7-16.65 51.85-18.93 51-21.2 49.27-22.43 47.55-23.65 44.95-23.65L44.95-23.65Q41.05-23.65 39.12-20.93 37.2-18.2 37.2-13.45L37.2-13.45Q37.2-10.3 38.07-7.98 38.95-5.65 40.67-4.4 42.4-3.15 45-3.15ZM76.84 0.5L76.84 0.5Q72.55 0.5 69.45-1.1 66.34-2.7 64.67-5.78 63-8.85 63-13.3L63-13.3Q63-17.7 64.59-20.83 66.2-23.95 69.05-25.63 71.9-27.3 75.7-27.3L75.7-27.3Q79.2-27.3 81.72-25.75 84.25-24.2 85.62-21.38 87-18.55 87-14.6L87-14.6 87-12.55 67.55-12.55Q67.65-9.05 68.87-7 70.09-4.95 72.22-4.08 74.34-3.2 77.15-3.2L77.15-3.2Q79.34-3.2 81.5-3.8 83.65-4.4 85.8-5.4L85.8-5.4 85.8-1.4Q83.5-0.4 81.2 0.05 78.9 0.5 76.84 0.5ZM67.65-16.15L82.5-16.15Q82.4-18.5 81.59-20.18 80.8-21.85 79.32-22.75 77.84-23.65 75.7-23.65L75.7-23.65Q72.34-23.65 70.27-21.63 68.2-19.6 67.65-16.15L67.65-16.15ZM126.49 0L122.49 0 122.49-26.8 125.59-26.8 126.24-23.85 126.49-23.85Q127.14-25.2 127.89-25.95 128.64-26.7 129.52-27 130.39-27.3 131.44-27.3L131.44-27.3Q133.49-27.3 134.62-26.33 135.74-25.35 136.34-23.45L136.34-23.45 136.49-23.45Q137.34-25.3 138.62-26.3 139.89-27.3 141.99-27.3L141.99-27.3Q144.04-27.3 145.27-26.25 146.49-25.2 147.02-23.05 147.54-20.9 147.54-17.5L147.54-17.5 147.54 0 143.54 0 143.54-16.75Q143.54-18.85 143.37-20.33 143.19-21.8 142.64-22.6 142.09-23.4 140.84-23.4L140.84-23.4Q139.64-23.4 138.79-22.28 137.94-21.15 137.49-18.95 137.04-16.75 137.04-13.4L137.04-13.4 137.04 0 133.04 0 133.04-16.75Q133.04-18.9 132.79-20.38 132.54-21.85 131.92-22.63 131.29-23.4 130.04-23.4L130.04-23.4Q128.74-23.4 127.94-22.18 127.14-20.95 126.82-18.73 126.49-16.5 126.49-13.4L126.49-13.4 126.49 0ZM166.84 0.5L166.84 0.5Q162.54 0.5 159.44-1.1 156.34-2.7 154.66-5.78 152.99-8.85 152.99-13.3L152.99-13.3Q152.99-17.7 154.59-20.83 156.19-23.95 159.04-25.63 161.89-27.3 165.69-27.3L165.69-27.3Q169.19-27.3 171.71-25.75 174.24-24.2 175.61-21.38 176.99-18.55 176.99-14.6L176.99-14.6 176.99-12.55 157.54-12.55Q157.64-9.05 158.86-7 160.09-4.95 162.21-4.08 164.34-3.2 167.14-3.2L167.14-3.2Q169.34-3.2 171.49-3.8 173.64-4.4 175.79-5.4L175.79-5.4 175.79-1.4Q173.49-0.4 171.19 0.05 168.89 0.5 166.84 0.5ZM157.64-16.15L172.49-16.15Q172.39-18.5 171.59-20.18 170.79-21.85 169.31-22.75 167.84-23.65 165.69-23.65L165.69-23.65Q162.34-23.65 160.26-21.63 158.19-19.6 157.64-16.15L157.64-16.15ZM188.49 0L183.99 0 183.99-26.8 187.59-26.8 188.24-22.85 188.49-22.85Q189.29-24.4 190.56-25.38 191.84-26.35 193.54-26.83 195.24-27.3 197.24-27.3L197.24-27.3Q201.29-27.3 203.76-25.03 206.24-22.75 206.24-17.9L206.24-17.9 206.24 0 201.74 0 201.74-17.1Q201.74-20.5 200.36-22.08 198.99-23.65 195.94-23.65L195.94-23.65Q191.84-23.65 190.16-21.05 188.49-18.45 188.49-13.75L188.49-13.75 188.49 0ZM223.68 0.5L223.68 0.5Q221.23 0.5 219.21-0.35 217.18-1.2 215.73-2.95 214.28-4.7 213.51-7.35 212.73-10 212.73-13.55L212.73-13.55Q212.73-18 214.01-21.08 215.28-24.15 217.83-25.73 220.38-27.3 224.18-27.3L224.18-27.3Q226.03-27.3 227.46-26.8 228.88-26.3 229.91-25.43 230.93-24.55 231.53-23.4L231.53-23.4 231.83-23.4Q231.78-23.9 231.71-24.58 231.63-25.25 231.58-25.98 231.53-26.7 231.53-27.35L231.53-27.35 231.53-38 235.98-38 235.98 0 232.28 0 231.78-3.6 231.58-3.6Q230.83-2.4 229.76-1.48 228.68-0.55 227.21-0.03 225.73 0.5 223.68 0.5ZM224.53-3.15L224.53-3.15Q228.08-3.15 229.81-5.63 231.53-8.1 231.53-12.35L231.53-12.35 231.53-13.35Q231.53-16.3 230.88-18.63 230.23-20.95 228.73-22.3 227.23-23.65 224.68-23.65L224.68-23.65Q221.18-23.65 219.26-21.05 217.33-18.45 217.33-13.1L217.33-13.1Q217.33-8.15 219.11-5.65 220.88-3.15 224.53-3.15ZM256.83 0.5L256.83 0.5Q252.53 0.5 249.43-1.1 246.33-2.7 244.66-5.78 242.98-8.85 242.98-13.3L242.98-13.3Q242.98-17.7 244.58-20.83 246.18-23.95 249.03-25.63 251.88-27.3 255.68-27.3L255.68-27.3Q259.18-27.3 261.71-25.75 264.23-24.2 265.61-21.38 266.98-18.55 266.98-14.6L266.98-14.6 266.98-12.55 247.53-12.55Q247.63-9.05 248.86-7 250.08-4.95 252.21-4.08 254.33-3.2 257.13-3.2L257.13-3.2Q259.33-3.2 261.48-3.8 263.63-4.4 265.78-5.4L265.78-5.4 265.78-1.4Q263.48-0.4 261.18 0.05 258.88 0.5 256.83 0.5ZM247.63-16.15L262.48-16.15Q262.38-18.5 261.58-20.18 260.78-21.85 259.31-22.75 257.83-23.65 255.68-23.65L255.68-23.65Q252.33-23.65 250.26-21.63 248.18-19.6 247.63-16.15L247.63-16.15ZM295.48 0L274.48 0 274.48-3.05 290.23-23.35 275.28-23.35 275.28-26.8 295.08-26.8 295.08-23.25 279.83-3.8 295.48-3.8 295.48 0ZM315.03-20.5L315.03-20.5Q313.73-20.5 312.83-21.3 311.93-22.1 311.93-23.9L311.93-23.9Q311.93-25.8 312.83-26.55 313.73-27.3 315.03-27.3L315.03-27.3Q316.33-27.3 317.2-26.55 318.08-25.8 318.08-23.9L318.08-23.9Q318.08-22.1 317.2-21.3 316.33-20.5 315.03-20.5ZM314.98 0.5L314.98 0.5Q313.68 0.5 312.78-0.3 311.88-1.1 311.88-2.9L311.88-2.9Q311.88-4.8 312.78-5.55 313.68-6.3 314.98-6.3L314.98-6.3Q316.28-6.3 317.15-5.55 318.03-4.8 318.03-2.9L318.03-2.9Q318.03-1.1 317.15-0.3 316.28 0.5 314.98 0.5ZM373.92 0.5L373.92 0.5Q371.42 0.5 369.15 0.05 366.87-0.4 365.22-1.2L365.22-1.2 365.22-5.35Q366.97-4.55 369.1-3.88 371.22-3.2 374.17-3.2L374.17-3.2Q377.47-3.2 378.85-4.23 380.22-5.25 380.22-7.2L380.22-7.2Q380.22-8.25 379.75-8.93 379.27-9.6 377.92-10.3 376.57-11 373.97-12.1L373.97-12.1Q371.37-13.25 369.52-14.25 367.67-15.25 366.67-16.63 365.67-18 365.67-20.15L365.67-20.15Q365.67-22.55 366.9-24.13 368.12-25.7 370.45-26.5 372.77-27.3 375.97-27.3L375.97-27.3Q378.17-27.3 380.17-26.9 382.17-26.5 384.32-25.6L384.32-25.6 382.97-22.1Q380.97-22.95 379.3-23.25 377.62-23.55 375.97-23.55L375.97-23.55Q372.87-23.55 371.45-22.75 370.02-21.95 370.02-20.25L370.02-20.25Q370.02-19.15 370.65-18.4 371.27-17.65 372.7-16.95 374.12-16.25 376.47-15.25L376.47-15.25Q379.12-14.15 380.97-13.2 382.82-12.25 383.77-10.93 384.72-9.6 384.72-7.3L384.72-7.3Q384.72-4.75 383.5-3.03 382.27-1.3 379.87-0.4 377.47 0.5 373.92 0.5ZM406.82 0.5L406.82 0.5Q402.52 0.5 399.42-1.1 396.32-2.7 394.64-5.78 392.97-8.85 392.97-13.3L392.97-13.3Q392.97-17.7 394.57-20.83 396.17-23.95 399.02-25.63 401.87-27.3 405.67-27.3L405.67-27.3Q409.17-27.3 411.69-25.75 414.22-24.2 415.59-21.38 416.97-18.55 416.97-14.6L416.97-14.6 416.97-12.55 397.52-12.55Q397.62-9.05 398.84-7 400.07-4.95 402.19-4.08 404.32-3.2 407.12-3.2L407.12-3.2Q409.32-3.2 411.47-3.8 413.62-4.4 415.77-5.4L415.77-5.4 415.77-1.4Q413.47-0.4 411.17 0.05 408.87 0.5 406.82 0.5ZM397.62-16.15L412.47-16.15Q412.37-18.5 411.57-20.18 410.77-21.85 409.29-22.75 407.82-23.65 405.67-23.65L405.67-23.65Q402.32-23.65 400.24-21.63 398.17-19.6 397.62-16.15L397.62-16.15ZM428.47 0L423.97 0 423.97-26.8 427.57-26.8 428.22-22.85 428.47-22.85Q429.27-24.4 430.54-25.38 431.82-26.35 433.52-26.83 435.22-27.3 437.22-27.3L437.22-27.3Q441.27-27.3 443.74-25.03 446.22-22.75 446.22-17.9L446.22-17.9 446.22 0 441.72 0 441.72-17.1Q441.72-20.5 440.34-22.08 438.97-23.65 435.92-23.65L435.92-23.65Q431.82-23.65 430.14-21.05 428.47-18.45 428.47-13.75L428.47-13.75 428.47 0ZM476.96 0L453.96 0 453.96-3 463.51-3.75 463.51-23.05 454.76-23.7 454.76-26.8 468.01-26.8 468.01-3.75 476.96-3 476.96 0ZM465.31-31.65L465.31-31.65Q464.01-31.65 463.09-32.45 462.16-33.25 462.16-34.8L462.16-34.8Q462.16-36.45 463.09-37.23 464.01-38 465.31-38L465.31-38Q466.61-38 467.54-37.23 468.46-36.45 468.46-34.8L468.46-34.8Q468.46-33.25 467.54-32.45 466.61-31.65 465.31-31.65ZM495.01 0.5L495.01 0.5Q492.41 0.5 490.16-0.35 487.91-1.2 486.24-2.95 484.56-4.7 483.64-7.33 482.71-9.95 482.71-13.5L482.71-13.5Q482.71-18.15 484.29-21.2 485.86-24.25 488.61-25.78 491.36-27.3 494.86-27.3L494.86-27.3Q498.36-27.3 501.16-25.78 503.96-24.25 505.59-21.18 507.21-18.1 507.21-13.35L507.21-13.35Q507.21-9.85 506.29-7.25 505.36-4.65 503.74-2.93 502.11-1.2 499.89-0.35 497.66 0.5 495.01 0.5ZM494.96-3.15L494.96-3.15Q497.56-3.15 499.26-4.4 500.96-5.65 501.81-7.98 502.66-10.3 502.66-13.45L502.66-13.45Q502.66-16.65 501.81-18.93 500.96-21.2 499.24-22.43 497.51-23.65 494.91-23.65L494.91-23.65Q491.01-23.65 489.09-20.93 487.16-18.2 487.16-13.45L487.16-13.45Q487.16-10.3 488.04-7.98 488.91-5.65 490.64-4.4 492.36-3.15 494.96-3.15ZM533.56 0L513.06 0 513.06-3 521.21-3.75 521.21-23.05 513.86-23.7 513.86-26.8 524.81-26.8 525.41-21.9 525.61-21.9Q527.01-24.55 528.68-25.93 530.36-27.3 533.11-27.3L533.11-27.3Q534.81-27.3 536.13-27 537.46-26.7 538.56-26.2L538.56-26.2 537.36-22.25Q536.56-22.7 535.46-23.03 534.36-23.35 533.11-23.35L533.11-23.35Q530.96-23.35 529.31-22 527.66-20.65 526.71-18.4 525.76-16.15 525.76-13.45L525.76-13.45 525.76-3.75 533.56-3 533.56 0ZM583.65 0.5L583.65 0.5Q581.2 0.5 579.18-0.35 577.15-1.2 575.7-2.95 574.25-4.7 573.48-7.35 572.7-10 572.7-13.55L572.7-13.55Q572.7-18 573.98-21.08 575.25-24.15 577.8-25.73 580.35-27.3 584.15-27.3L584.15-27.3Q586-27.3 587.43-26.8 588.85-26.3 589.88-25.43 590.9-24.55 591.5-23.4L591.5-23.4 591.8-23.4Q591.75-23.9 591.68-24.58 591.6-25.25 591.55-25.98 591.5-26.7 591.5-27.35L591.5-27.35 591.5-38 595.95-38 595.95 0 592.25 0 591.75-3.6 591.55-3.6Q590.8-2.4 589.73-1.48 588.65-0.55 587.18-0.03 585.7 0.5 583.65 0.5ZM584.5-3.15L584.5-3.15Q588.05-3.15 589.78-5.63 591.5-8.1 591.5-12.35L591.5-12.35 591.5-13.35Q591.5-16.3 590.85-18.63 590.2-20.95 588.7-22.3 587.2-23.65 584.65-23.65L584.65-23.65Q581.15-23.65 579.23-21.05 577.3-18.45 577.3-13.1L577.3-13.1Q577.3-8.15 579.08-5.65 580.85-3.15 584.5-3.15ZM612.25 0.5L612.25 0.5Q608.3 0.5 605.87-1.45 603.45-3.4 603.45-7.35L603.45-7.35Q603.45-10.25 604.85-12.18 606.25-14.1 608.97-15.08 611.7-16.05 615.6-16.15L615.6-16.15 621.35-16.3 621.35-17.4Q621.35-21 619.55-22.33 617.75-23.65 614.7-23.65L614.7-23.65Q612.55-23.65 610.6-23.1 608.65-22.55 606.9-21.55L606.9-21.55 605.35-24.95Q607.25-25.9 609.57-26.6 611.9-27.3 614.95-27.3L614.95-27.3Q620-27.3 622.72-25.03 625.45-22.75 625.45-17.95L625.45-17.95 625.45 0 621.85 0 621.35-3.7 621.15-3.7Q620.05-2.3 618.72-1.38 617.4-0.45 615.8 0.03 614.2 0.5 612.25 0.5ZM613-3.15L613-3.15Q615.25-3.15 617.15-3.98 619.05-4.8 620.2-6.48 621.35-8.15 621.35-10.7L621.35-10.7 621.35-13.1 616.55-12.95Q613.35-12.85 611.4-12.18 609.45-11.5 608.57-10.33 607.7-9.15 607.7-7.5L607.7-7.5Q607.7-5.2 609.15-4.17 610.6-3.15 613-3.15ZM650.05 0.5L650.05 0.5Q647.2 0.5 644.95-0.25 642.7-1 641.37-2.9 640.05-4.8 640.05-8.15L640.05-8.15 640.05-23.05 632.75-23.05 632.75-26.15 640.05-26.95 640.95-33.95 644.55-33.95 644.55-26.8 655-26.8 655-23.05 644.55-23.05 644.55-9Q644.55-7 645.12-5.7 645.7-4.4 647-3.78 648.3-3.15 650.35-3.15L650.35-3.15Q651.65-3.15 653.15-3.4 654.65-3.65 655.75-3.9L655.75-3.9 655.75-0.3Q654.55 0 653.1 0.25 651.65 0.5 650.05 0.5ZM672.24 0.5L672.24 0.5Q668.29 0.5 665.87-1.45 663.44-3.4 663.44-7.35L663.44-7.35Q663.44-10.25 664.84-12.18 666.24-14.1 668.97-15.08 671.69-16.05 675.59-16.15L675.59-16.15 681.34-16.3 681.34-17.4Q681.34-21 679.54-22.33 677.74-23.65 674.69-23.65L674.69-23.65Q672.54-23.65 670.59-23.1 668.64-22.55 666.89-21.55L666.89-21.55 665.34-24.95Q667.24-25.9 669.57-26.6 671.89-27.3 674.94-27.3L674.94-27.3Q679.99-27.3 682.72-25.03 685.44-22.75 685.44-17.95L685.44-17.95 685.44 0 681.84 0 681.34-3.7 681.14-3.7Q680.04-2.3 678.72-1.38 677.39-0.45 675.79 0.03 674.19 0.5 672.24 0.5ZM672.99-3.15L672.99-3.15Q675.24-3.15 677.14-3.98 679.04-4.8 680.19-6.48 681.34-8.15 681.34-10.7L681.34-10.7 681.34-13.1 676.54-12.95Q673.34-12.85 671.39-12.18 669.44-11.5 668.57-10.33 667.69-9.15 667.69-7.5L667.69-7.5Q667.69-5.2 669.14-4.17 670.59-3.15 672.99-3.15ZM736.79 0.5L736.79 0.5Q732.49 0.5 729.39-1.1 726.29-2.7 724.61-5.78 722.94-8.85 722.94-13.3L722.94-13.3Q722.94-17.7 724.54-20.83 726.14-23.95 728.99-25.63 731.84-27.3 735.64-27.3L735.64-27.3Q739.14-27.3 741.66-25.75 744.19-24.2 745.56-21.38 746.94-18.55 746.94-14.6L746.94-14.6 746.94-12.55 727.49-12.55Q727.59-9.05 728.81-7 730.04-4.95 732.16-4.08 734.29-3.2 737.09-3.2L737.09-3.2Q739.29-3.2 741.44-3.8 743.59-4.4 745.74-5.4L745.74-5.4 745.74-1.4Q743.44-0.4 741.14 0.05 738.84 0.5 736.79 0.5ZM727.59-16.15L742.44-16.15Q742.34-18.5 741.54-20.18 740.74-21.85 739.26-22.75 737.79-23.65 735.64-23.65L735.64-23.65Q732.29-23.65 730.21-21.63 728.14-19.6 727.59-16.15L727.59-16.15ZM758.44 0L753.94 0 753.94-26.8 757.54-26.8 758.19-22.85 758.44-22.85Q759.24-24.4 760.51-25.38 761.79-26.35 763.49-26.83 765.19-27.3 767.19-27.3L767.19-27.3Q771.24-27.3 773.71-25.03 776.19-22.75 776.19-17.9L776.19-17.9 776.19 0 771.69 0 771.69-17.1Q771.69-20.5 770.31-22.08 768.94-23.65 765.89-23.65L765.89-23.65Q761.79-23.65 760.11-21.05 758.44-18.45 758.44-13.75L758.44-13.75 758.44 0ZM793.73 12.25L793.73 12.25Q790.98 12.25 788.56 11.73 786.13 11.2 784.08 10.35L784.08 10.35 784.08 6.35Q786.08 7.5 788.71 8.08 791.33 8.65 793.58 8.65L793.58 8.65Q798.13 8.65 799.93 6.53 801.73 4.4 801.73 0.7L801.73 0.7 801.73-0.25Q801.73-0.85 801.76-1.4 801.78-1.95 801.88-3.1L801.88-3.1 801.68-3.1Q800.28-1.05 798.41-0.28 796.53 0.5 793.88 0.5L793.88 0.5Q788.58 0.5 785.63-3.13 782.68-6.75 782.68-13.25L782.68-13.25Q782.68-19.8 785.61-23.55 788.53-27.3 793.63-27.3L793.63-27.3Q796.33-27.3 798.18-26.43 800.03-25.55 801.48-23.5L801.48-23.5 801.73-23.5 802.33-26.8 805.93-26.8 805.93 0.7Q805.93 4.5 804.63 7.08 803.33 9.65 800.63 10.95 797.93 12.25 793.73 12.25ZM794.73-3.15L794.73-3.15Q796.38-3.15 797.71-3.68 799.03-4.2 799.96-5.33 800.88-6.45 801.38-8.18 801.88-9.9 801.88-12.3L801.88-12.3 801.88-13.35Q801.88-17 801.01-19.28 800.13-21.55 798.48-22.6 796.83-23.65 794.58-23.65L794.58-23.65Q790.78-23.65 789.03-20.98 787.28-18.3 787.28-13.4L787.28-13.4Q787.28-8.4 789.11-5.78 790.93-3.15 794.73-3.15ZM836.93 0L813.93 0 813.93-3 823.48-3.75 823.48-23.05 814.73-23.7 814.73-26.8 827.98-26.8 827.98-3.75 836.93-3 836.93 0ZM825.28-31.65L825.28-31.65Q823.98-31.65 823.06-32.45 822.13-33.25 822.13-34.8L822.13-34.8Q822.13-36.45 823.06-37.23 823.98-38 825.28-38L825.28-38Q826.58-38 827.51-37.23 828.43-36.45 828.43-34.8L828.43-34.8Q828.43-33.25 827.51-32.45 826.58-31.65 825.28-31.65ZM848.43 0L843.93 0 843.93-26.8 847.53-26.8 848.18-22.85 848.43-22.85Q849.23-24.4 850.5-25.38 851.78-26.35 853.48-26.83 855.18-27.3 857.18-27.3L857.18-27.3Q861.23-27.3 863.7-25.03 866.18-22.75 866.18-17.9L866.18-17.9 866.18 0 861.68 0 861.68-17.1Q861.68-20.5 860.3-22.08 858.93-23.65 855.88-23.65L855.88-23.65Q851.78-23.65 850.1-21.05 848.43-18.45 848.43-13.75L848.43-13.75 848.43 0ZM886.78 0.5L886.78 0.5Q882.48 0.5 879.38-1.1 876.28-2.7 874.6-5.78 872.93-8.85 872.93-13.3L872.93-13.3Q872.93-17.7 874.53-20.83 876.13-23.95 878.98-25.63 881.83-27.3 885.63-27.3L885.63-27.3Q889.13-27.3 891.65-25.75 894.18-24.2 895.55-21.38 896.93-18.55 896.93-14.6L896.93-14.6 896.93-12.55 877.48-12.55Q877.58-9.05 878.8-7 880.03-4.95 882.15-4.08 884.28-3.2 887.08-3.2L887.08-3.2Q889.28-3.2 891.43-3.8 893.58-4.4 895.73-5.4L895.73-5.4 895.73-1.4Q893.43-0.4 891.13 0.05 888.83 0.5 886.78 0.5ZM877.58-16.15L892.43-16.15Q892.33-18.5 891.53-20.18 890.73-21.85 889.25-22.75 887.78-23.65 885.63-23.65L885.63-23.65Q882.28-23.65 880.2-21.63 878.13-19.6 877.58-16.15L877.58-16.15ZM916.77 0.5L916.77 0.5Q912.47 0.5 909.37-1.1 906.27-2.7 904.6-5.78 902.92-8.85 902.92-13.3L902.92-13.3Q902.92-17.7 904.52-20.83 906.12-23.95 908.97-25.63 911.82-27.3 915.62-27.3L915.62-27.3Q919.12-27.3 921.65-25.75 924.17-24.2 925.55-21.38 926.92-18.55 926.92-14.6L926.92-14.6 926.92-12.55 907.47-12.55Q907.57-9.05 908.8-7 910.02-4.95 912.15-4.08 914.27-3.2 917.07-3.2L917.07-3.2Q919.27-3.2 921.42-3.8 923.57-4.4 925.72-5.4L925.72-5.4 925.72-1.4Q923.42-0.4 921.12 0.05 918.82 0.5 916.77 0.5ZM907.57-16.15L922.42-16.15Q922.32-18.5 921.52-20.18 920.72-21.85 919.25-22.75 917.77-23.65 915.62-23.65L915.62-23.65Q912.27-23.65 910.2-21.63 908.12-19.6 907.57-16.15L907.57-16.15ZM953.52 0L933.02 0 933.02-3 941.17-3.75 941.17-23.05 933.82-23.7 933.82-26.8 944.77-26.8 945.37-21.9 945.57-21.9Q946.97-24.55 948.65-25.93 950.32-27.3 953.07-27.3L953.07-27.3Q954.77-27.3 956.1-27 957.42-26.7 958.52-26.2L958.52-26.2 957.32-22.25Q956.52-22.7 955.42-23.03 954.32-23.35 953.07-23.35L953.07-23.35Q950.92-23.35 949.27-22 947.62-20.65 946.67-18.4 945.72-16.15 945.72-13.45L945.72-13.45 945.72-3.75 953.52-3 953.52 0Z" opacity="1" transform="matrix(1,0,0,1,0,0)" fill="#ffffff" class="wordmark-text-0" data-fill-palette-color="primary" id="text-0"></path></svg></g></svg></g></svg></g></svg></g><g><svg viewBox="0 0 55.31426540194583 38.68593405526699" height="38.68593405526699" width="55.31426540194583"><g><svg xmlns="http://www.w3.org/2000/svg" xmlns:xlink="http://www.w3.org/1999/xlink" version="1.1" x="8" y="0" viewBox="14.585586047769123 16.1 70.86666347713194 69.73405307116417" style="enable-background:new 0 0 100 100;" xml:space="preserve" height="38.68593405526699" width="39.31426540194583" class="icon-icon-0" data-fill-palette-color="accent" id="icon-0"><g fill="#01cc65" data-fill-palette-color="accent"><g fill="#01cc65" data-fill-palette-color="accent"><path d="M50.1 51.6C48 51.8 46.2 51.3 44.4 50.4 35.6 46 26.8 41.6 17.9 37.1 17.2 36.8 16.5 36.4 16 35.9 14.5 34.6 14.5 33.1 16 31.9 16.6 31.4 17.4 31 18.2 30.6 26.8 26.3 35.5 22 44.1 17.6 48.1 15.6 52.1 15.6 56.1 17.6 64.7 21.9 73.3 26.2 82 30.5 82.5 30.8 83.1 31 83.6 31.4 86 32.9 85.9 34.8 83.5 36.4 83 36.8 82.5 37 82 37.3 73.3 41.6 64.6 46 55.9 50.4 54.1 51.3 52.2 51.9 50.1 51.6" fill="#01cc65" data-fill-palette-color="accent"></path><path d="M49.5 69C47.5 69.2 45.6 68.6 43.7 67.7 34.7 63.2 25.8 58.7 16.8 54.2 15.4 53.5 14.3 52.6 14.7 50.8 14.9 49.5 15.9 48.7 17.2 48.5 18.3 48.3 19.3 48.9 20.2 49.4 28.4 53.5 36.7 57.6 44.8 61.8 48.4 63.6 51.6 63.7 55.2 61.8 63.3 57.6 71.5 53.6 79.6 49.5 80.3 49.1 81.1 48.7 81.9 48.5 83.3 48.2 84.4 48.8 85.1 50.1 85.8 51.3 85.4 52.5 84.4 53.4 83.8 53.9 83.1 54.3 82.5 54.6 74.2 58.8 66 63 57.7 67.1 55.2 68.4 52.5 69.1 49.5 69" fill="#01cc65" data-fill-palette-color="accent"></path><path d="M50.1 85.8C47.7 86 45.5 85.3 43.3 84.2 34.7 79.9 26.2 75.7 17.6 71.4 16.9 71 16.1 70.6 15.5 70.1 14.5 69.2 14.3 68 15 66.8 15.8 65.6 16.8 64.9 18.3 65.4 19 65.6 19.7 66 20.4 66.3 28.6 70.4 36.9 74.5 45 78.7 48.4 80.5 51.6 80.5 55 78.7 63.4 74.4 71.8 70.2 80.2 66 81.4 65.4 82.5 64.8 83.8 65.6 85.6 66.6 85.8 69.1 84.2 70.4 83.6 70.9 82.9 71.2 82.2 71.5 73.8 75.7 65.3 79.9 56.9 84.1 54.9 85.2 52.6 86 50.1 85.8" fill="#01cc65" data-fill-palette-color="accent"></path></g></g></svg></g></svg></g></svg></g><defs></defs></svg><rect width="395.5199999999999" height="33.08732329929387" fill="none" stroke="none" visibility="hidden"></rect></g></svg></g></svg>