<svg xmlns="http://www.w3.org/2000/svg" version="1.1" xmlns:xlink="http://www.w3.org/1999/xlink" xmlns:svgjs="http://svgjs.dev/svgjs" width="2000" height="414" viewBox="0 0 2000 414"><g transform="matrix(1,0,0,1,-1.2121212121212466,-6.598101846628538)"><svg viewBox="0 0 396 82" data-background-color="#121212" preserveAspectRatio="xMidYMid meet" height="414" width="2000" xmlns="http://www.w3.org/2000/svg" xmlns:xlink="http://www.w3.org/1999/xlink"><g id="tight-bounds" transform="matrix(1,0,0,1,0.2400000000000091,1.317798720301937)"><svg viewBox="0 0 395.52 80.29536617055497" height="80.29536617055497" width="395.52"><g><svg viewBox="0 0 516.6276907640124 104.8816990385938" height="80.29536617055497" width="395.52"><g transform="matrix(1,0,0,1,119.13009076401255,35.748447711524776)"><svg viewBox="0 0 397.4975999999999 33.38480361554424" height="33.38480361554424" width="397.4975999999999"><g id="textblocktransform"><svg viewBox="0 0 397.4975999999999 33.38480361554424" height="33.38480361554424" width="397.4975999999999" id="textblock"><g><rect width="397.4975999999999" height="1.1966957385913246" x="0" y="17.50846046480107" fill="#ffffff" opacity="1" stroke-width="0" stroke="transparent" fill-opacity="1" class="rect-yte-0" data-fill-palette-color="primary" rx="1%" id="yte-0" data-palette-color="#ffffff"></rect></g><g transform="matrix(1,0,0,1,0.9887999999999693,0)"><svg viewBox="0 0 395.52 16.09874035389506" height="16.09874035389506" width="395.52"><g transform="matrix(1,0,0,1,0,0)"><svg width="395.52" viewBox="-3.17 -36.45 979.63 40.84" height="16.09874035389506" data-palette-color="#ffffff"><path d="M13.13-32.08L13.13-11.11Q13.13-8.42 12.6-6.3 12.06-4.17 10.99-2.7 9.91-1.22 8.33-0.44 6.74 0.34 4.66 0.34L4.66 0.34Q3.71 0.34 2.78 0.21 1.86 0.07 0.83-0.24L0.83-0.24Q0.88-0.93 0.94-1.59 1-2.25 1.07-2.88L1.07-2.88Q1.12-3.25 1.35-3.49 1.59-3.74 2.05-3.74L2.05-3.74Q2.37-3.74 2.87-3.55 3.37-3.37 4.2-3.37L4.2-3.37Q6.4-3.37 7.54-5.18 8.69-6.98 8.69-11.01L8.69-11.01 8.69-32.08 13.13-32.08ZM47.29-16.04L47.29-16.04Q47.29-12.43 46.23-9.42 45.16-6.42 43.22-4.25 41.28-2.08 38.56-0.87 35.84 0.34 32.52 0.34L32.52 0.34Q29.22 0.34 26.49-0.87 23.75-2.08 21.8-4.25 19.85-6.42 18.77-9.42 17.7-12.43 17.7-16.04L17.7-16.04Q17.7-19.63 18.77-22.64 19.85-25.66 21.8-27.84 23.75-30.03 26.49-31.24 29.22-32.45 32.52-32.45L32.52-32.45Q35.84-32.45 38.56-31.24 41.28-30.03 43.22-27.84 45.16-25.66 46.23-22.64 47.29-19.63 47.29-16.04ZM42.75-16.04L42.75-16.04Q42.75-18.97 42.03-21.3 41.31-23.63 39.98-25.26 38.64-26.88 36.75-27.75 34.86-28.61 32.52-28.61L32.52-28.61Q30.17-28.61 28.28-27.75 26.39-26.88 25.05-25.26 23.7-23.63 22.98-21.3 22.26-18.97 22.26-16.04L22.26-16.04Q22.26-13.11 22.98-10.78 23.7-8.45 25.05-6.82 26.39-5.2 28.28-4.35 30.17-3.49 32.52-3.49L32.52-3.49Q34.86-3.49 36.75-4.35 38.64-5.2 39.98-6.82 41.31-8.45 42.03-10.78 42.75-13.11 42.75-16.04ZM52.58-32.08L71.33-32.08 71.33-28.47 57.05-28.47 57.05-17.94 68.55-17.94 68.55-14.45 57.05-14.45 57.05-3.61 71.36-3.61 71.33 0 52.58 0 52.58-32.08ZM105.14-11.69L105.14-11.69Q105.46-11.13 105.72-10.55 105.97-9.96 106.22-9.35L106.22-9.35Q106.46-9.99 106.72-10.57 106.97-11.16 107.27-11.69L107.27-11.69 118.59-31.35Q118.89-31.86 119.23-31.97 119.57-32.08 120.16-32.08L120.16-32.08 123.43-32.08 123.43 0 119.5 0 119.5-23.41Q119.5-23.9 119.53-24.5 119.57-25.1 119.62-25.71L119.62-25.71 108.17-5.59Q107.61-4.59 106.56-4.59L106.56-4.59 105.92-4.59Q104.87-4.59 104.31-5.59L104.31-5.59 92.59-25.68Q92.74-24.46 92.74-23.41L92.74-23.41 92.74 0 88.83 0 88.83-32.08 92.1-32.08Q92.69-32.08 93.02-31.97 93.35-31.86 93.67-31.32L93.67-31.32 105.14-11.69ZM131.04-32.08L149.79-32.08 149.79-28.47 135.51-28.47 135.51-17.94 147.01-17.94 147.01-14.45 135.51-14.45 135.51-3.61 149.82-3.61 149.79 0 131.04 0 131.04-32.08ZM157.85-32.08L157.85-32.08Q158.41-32.08 158.7-31.95 158.99-31.81 159.36-31.32L159.36-31.32 176.79-7.32Q176.74-7.91 176.71-8.48 176.67-9.06 176.67-9.55L176.67-9.55 176.67-32.08 180.58-32.08 180.58 0 178.33 0Q177.82 0 177.46-0.17 177.11-0.34 176.77-0.78L176.77-0.78 159.34-24.71Q159.38-24.15 159.41-23.63 159.43-23.12 159.43-22.66L159.43-22.66 159.43 0 155.53 0 155.53-32.08 157.85-32.08ZM213.29-16.04L213.29-16.04Q213.29-12.43 212.23-9.47 211.16-6.52 209.25-4.41 207.33-2.29 204.63-1.15 201.94 0 198.66 0L198.66 0 187.58 0 187.58-32.08 198.66-32.08Q201.94-32.08 204.63-30.92 207.33-29.76 209.25-27.66 211.16-25.56 212.23-22.6 213.29-19.63 213.29-16.04ZM208.72-16.04L208.72-16.04Q208.72-18.97 208.01-21.28 207.31-23.58 205.99-25.2 204.67-26.81 202.81-27.65 200.96-28.49 198.66-28.49L198.66-28.49 192.05-28.49 192.05-3.59 198.66-3.59Q200.96-3.59 202.81-4.43 204.67-5.27 205.99-6.87 207.31-8.47 208.01-10.79 208.72-13.11 208.72-16.04ZM218.49-32.08L237.24-32.08 237.24-28.47 222.95-28.47 222.95-17.94 234.45-17.94 234.45-14.45 222.95-14.45 222.95-3.61 237.26-3.61 237.24 0 218.49 0 218.49-32.08ZM241.55-32.08L261.57-32.08 261.57-30.44Q261.57-29.66 261.11-28.98L261.11-28.98 246.1-3.61 261.26-3.61 261.26 0 240.72 0 240.72-1.73Q240.72-2.1 240.85-2.42 240.97-2.73 241.16-3.03L241.16-3.03 256.15-28.47 241.55-28.47 241.55-32.08ZM264.6-12.3L264.6-15.94 276.27-15.94 276.27-12.3 264.6-12.3ZM305.81-32.08L305.81 0 301.34 0 301.34-14.55 285.96-14.55 285.96 0 281.49 0 281.49-32.08 285.96-32.08 285.96-17.8 301.34-17.8 301.34-32.08 305.81-32.08ZM325.26-3.52L325.26-3.52Q327.19-3.52 328.72-4.19 330.24-4.86 331.29-6.07 332.34-7.28 332.89-8.94 333.44-10.6 333.44-12.6L333.44-12.6 333.44-32.08 337.89-32.08 337.89-12.6Q337.89-9.81 337.01-7.45 336.13-5.08 334.5-3.34 332.88-1.61 330.54-0.62 328.19 0.37 325.26 0.37L325.26 0.37Q322.33 0.37 320-0.62 317.67-1.61 316.03-3.34 314.4-5.08 313.52-7.45 312.64-9.81 312.64-12.6L312.64-12.6 312.64-32.08 317.08-32.08 317.08-12.62Q317.08-10.62 317.63-8.95 318.18-7.28 319.23-6.07 320.28-4.86 321.81-4.19 323.33-3.52 325.26-3.52ZM370.23-3.1L370.23-3.1Q367.89-1.37 365.24-0.51 362.59 0.34 359.49 0.34L359.49 0.34Q355.75 0.34 352.74-0.85 349.72-2.05 347.6-4.21 345.48-6.37 344.33-9.39 343.18-12.4 343.18-16.04L343.18-16.04Q343.18-19.7 344.29-22.72 345.4-25.73 347.47-27.89 349.53-30.05 352.46-31.25 355.39-32.45 359.03-32.45L359.03-32.45Q360.88-32.45 362.46-32.17 364.03-31.88 365.37-31.36 366.72-30.83 367.85-30.08 368.99-29.32 369.96-28.39L369.96-28.39 368.72-26.39Q368.42-25.9 367.94-25.78 367.45-25.66 366.89-26L366.89-26Q366.32-26.32 365.65-26.77 364.98-27.22 364.05-27.62 363.13-28.03 361.86-28.32 360.59-28.61 358.85-28.61L358.85-28.61Q356.32-28.61 354.25-27.73 352.19-26.86 350.74-25.22 349.28-23.58 348.5-21.25 347.72-18.92 347.72-16.04L347.72-16.04Q347.72-13.04 348.54-10.66 349.36-8.28 350.88-6.63 352.41-4.98 354.56-4.11 356.71-3.25 359.37-3.25L359.37-3.25Q361.42-3.25 363.03-3.72 364.64-4.2 366.2-5.05L366.2-5.05 366.2-12.08 361.59-12.08Q361.15-12.08 360.88-12.33 360.61-12.57 360.61-12.94L360.61-12.94 360.61-15.45 370.23-15.45 370.23-3.1ZM400.58-32.08L400.58 0 396.11 0 396.11-14.55 380.73-14.55 380.73 0 376.26 0 376.26-32.08 380.73-32.08 380.73-17.8 396.11-17.8 396.11-32.08 400.58-32.08ZM407.53-32.08L426.28-32.08 426.28-28.47 412-28.47 412-17.94 423.5-17.94 423.5-14.45 412-14.45 412-3.61 426.31-3.61 426.28 0 407.53 0 407.53-32.08ZM448.96-29.1L447.86-27.03Q447.49-26.34 446.86-26.34L446.86-26.34Q446.49-26.34 445.99-26.72 445.49-27.1 444.77-27.55 444.05-28 443.04-28.38 442.03-28.76 440.61-28.76L440.61-28.76Q439.27-28.76 438.25-28.38 437.24-28 436.57-27.33 435.9-26.66 435.56-25.77 435.21-24.88 435.21-23.85L435.21-23.85Q435.21-22.51 435.84-21.63 436.46-20.75 437.47-20.13 438.49-19.51 439.78-19.04 441.07-18.58 442.42-18.09 443.76-17.6 445.05-16.98 446.35-16.36 447.36-15.42 448.37-14.48 449-13.11 449.62-11.74 449.62-9.77L449.62-9.77Q449.62-7.64 448.93-5.8 448.25-3.96 446.94-2.59 445.64-1.22 443.73-0.44 441.83 0.34 439.39 0.34L439.39 0.34Q436.43 0.34 433.96-0.79 431.48-1.93 429.75-3.86L429.75-3.86 431.04-5.96Q431.21-6.23 431.47-6.38 431.72-6.54 432.06-6.54L432.06-6.54Q432.53-6.54 433.1-6.04 433.68-5.54 434.53-4.94 435.38-4.35 436.59-3.85 437.8-3.34 439.49-3.34L439.49-3.34Q440.9-3.34 442-3.76 443.1-4.17 443.87-4.93 444.64-5.69 445.04-6.75 445.44-7.81 445.44-9.11L445.44-9.11Q445.44-10.55 444.82-11.47 444.2-12.4 443.19-13.02 442.17-13.65 440.88-14.07 439.58-14.5 438.24-14.97 436.9-15.43 435.6-16.03 434.31-16.63 433.3-17.6 432.28-18.58 431.66-20.02 431.04-21.46 431.04-23.61L431.04-23.61Q431.04-25.29 431.67-26.89 432.31-28.49 433.52-29.72 434.73-30.96 436.5-31.7 438.27-32.45 440.56-32.45L440.56-32.45Q443.12-32.45 445.26-31.59 447.4-30.74 448.96-29.1L448.96-29.1ZM454.86 0L454.86 0ZM461.04-2.61L461.04-2.61Q461.04-2 460.8-1.45 460.55-0.9 460.13-0.5 459.7-0.1 459.15 0.15 458.6 0.39 457.99 0.39L457.99 0.39Q457.38 0.39 456.84 0.15 456.31-0.1 455.9-0.5 455.5-0.9 455.26-1.45 455.01-2 455.01-2.61L455.01-2.61Q455.01-3.25 455.26-3.8 455.5-4.35 455.9-4.76 456.31-5.18 456.84-5.42 457.38-5.66 457.99-5.66L457.99-5.66Q458.6-5.66 459.15-5.42 459.7-5.18 460.13-4.76 460.55-4.35 460.8-3.8 461.04-3.25 461.04-2.61ZM460.9-19.17L460.9-19.17Q460.9-18.55 460.65-18.01 460.41-17.46 459.98-17.05 459.55-16.65 459-16.41 458.45-16.16 457.84-16.16L457.84-16.16Q457.23-16.16 456.7-16.41 456.16-16.65 455.76-17.05 455.35-17.46 455.11-18.01 454.86-18.55 454.86-19.17L454.86-19.17Q454.86-19.8 455.11-20.35 455.35-20.9 455.76-21.31 456.16-21.73 456.7-21.97 457.23-22.22 457.84-22.22L457.84-22.22Q458.45-22.22 459-21.97 459.55-21.73 459.98-21.31 460.41-20.9 460.65-20.35 460.9-19.8 460.9-19.17ZM496.61-29.1L495.51-27.03Q495.14-26.34 494.51-26.34L494.51-26.34Q494.14-26.34 493.64-26.72 493.14-27.1 492.42-27.55 491.7-28 490.69-28.38 489.67-28.76 488.26-28.76L488.26-28.76Q486.92-28.76 485.9-28.38 484.89-28 484.22-27.33 483.55-26.66 483.2-25.77 482.86-24.88 482.86-23.85L482.86-23.85Q482.86-22.51 483.49-21.63 484.11-20.75 485.12-20.13 486.13-19.51 487.43-19.04 488.72-18.58 490.06-18.09 491.41-17.6 492.7-16.98 494-16.36 495.01-15.42 496.02-14.48 496.64-13.11 497.27-11.74 497.27-9.77L497.27-9.77Q497.27-7.64 496.58-5.8 495.9-3.96 494.59-2.59 493.29-1.22 491.38-0.44 489.48 0.34 487.04 0.34L487.04 0.34Q484.08 0.34 481.61-0.79 479.13-1.93 477.39-3.86L477.39-3.86 478.69-5.96Q478.86-6.23 479.12-6.38 479.37-6.54 479.71-6.54L479.71-6.54Q480.18-6.54 480.75-6.04 481.32-5.54 482.18-4.94 483.03-4.35 484.24-3.85 485.45-3.34 487.14-3.34L487.14-3.34Q488.55-3.34 489.65-3.76 490.75-4.17 491.52-4.93 492.29-5.69 492.69-6.75 493.09-7.81 493.09-9.11L493.09-9.11Q493.09-10.55 492.47-11.47 491.85-12.4 490.83-13.02 489.82-13.65 488.53-14.07 487.23-14.5 485.89-14.97 484.55-15.43 483.25-16.03 481.96-16.63 480.95-17.6 479.93-18.58 479.31-20.02 478.69-21.46 478.69-23.61L478.69-23.61Q478.69-25.29 479.32-26.89 479.96-28.49 481.17-29.72 482.37-30.96 484.14-31.7 485.91-32.45 488.21-32.45L488.21-32.45Q490.77-32.45 492.91-31.59 495.05-30.74 496.61-29.1L496.61-29.1ZM502.56-32.08L521.31-32.08 521.31-28.47 507.03-28.47 507.03-17.94 518.53-17.94 518.53-14.45 507.03-14.45 507.03-3.61 521.34-3.61 521.31 0 502.56 0 502.56-32.08ZM529.37-32.08L529.37-32.08Q529.93-32.08 530.22-31.95 530.51-31.81 530.88-31.32L530.88-31.32 548.31-7.32Q548.26-7.91 548.23-8.48 548.19-9.06 548.19-9.55L548.19-9.55 548.19-32.08 552.1-32.08 552.1 0 549.85 0Q549.34 0 548.98-0.17 548.63-0.34 548.29-0.78L548.29-0.78 530.86-24.71Q530.9-24.15 530.93-23.63 530.95-23.12 530.95-22.66L530.95-22.66 530.95 0 527.05 0 527.05-32.08 529.37-32.08ZM564.23-32.08L564.23 0 559.78 0 559.78-32.08 564.23-32.08ZM599.65-16.04L599.65-16.04Q599.65-12.43 598.59-9.42 597.53-6.42 595.58-4.25 593.64-2.08 590.92-0.87 588.2 0.34 584.88 0.34L584.88 0.34Q581.58 0.34 578.85-0.87 576.11-2.08 574.16-4.25 572.21-6.42 571.13-9.42 570.06-12.43 570.06-16.04L570.06-16.04Q570.06-19.63 571.13-22.64 572.21-25.66 574.16-27.84 576.11-30.03 578.85-31.24 581.58-32.45 584.88-32.45L584.88-32.45Q588.2-32.45 590.92-31.24 593.64-30.03 595.58-27.84 597.53-25.66 598.59-22.64 599.65-19.63 599.65-16.04ZM595.11-16.04L595.11-16.04Q595.11-18.97 594.39-21.3 593.67-23.63 592.34-25.26 591.01-26.88 589.11-27.75 587.22-28.61 584.88-28.61L584.88-28.61Q582.54-28.61 580.64-27.75 578.75-26.88 577.41-25.26 576.07-23.63 575.35-21.3 574.63-18.97 574.63-16.04L574.63-16.04Q574.63-13.11 575.35-10.78 576.07-8.45 577.41-6.82 578.75-5.2 580.64-4.35 582.54-3.49 584.88-3.49L584.88-3.49Q587.22-3.49 589.11-4.35 591.01-5.2 592.34-6.82 593.67-8.45 594.39-10.78 595.11-13.11 595.11-16.04ZM612.42-13.33L609.44-13.33 609.44 0 604.99 0 604.99-32.08 613.78-32.08Q616.71-32.08 618.85-31.46 620.98-30.83 622.36-29.68 623.74-28.52 624.4-26.87 625.06-25.22 625.06-23.17L625.06-23.17Q625.06-21.48 624.56-20.02 624.06-18.55 623.12-17.38 622.18-16.21 620.81-15.37 619.45-14.53 617.71-14.09L617.71-14.09Q618.13-13.82 618.49-13.49 618.86-13.16 619.2-12.7L619.2-12.7 627.82 0 623.87 0Q622.72 0 622.08-0.9L622.08-0.9 614.49-12.33Q614.12-12.87 613.7-13.1 613.27-13.33 612.42-13.33L612.42-13.33ZM609.44-28.59L609.44-16.58 613.61-16.58Q615.37-16.58 616.7-17.03 618.03-17.48 618.93-18.31 619.84-19.14 620.29-20.3 620.74-21.46 620.74-22.85L620.74-22.85Q620.74-28.59 613.78-28.59L613.78-28.59 609.44-28.59ZM668.95-16.04L668.95-16.04Q668.95-12.43 667.89-9.47 666.83-6.52 664.91-4.41 663-2.29 660.3-1.15 657.6 0 654.33 0L654.33 0 643.25 0 643.25-32.08 654.33-32.08Q657.6-32.08 660.3-30.92 663-29.76 664.91-27.66 666.83-25.56 667.89-22.6 668.95-19.63 668.95-16.04ZM664.39-16.04L664.39-16.04Q664.39-18.97 663.68-21.28 662.97-23.58 661.65-25.2 660.34-26.81 658.48-27.65 656.62-28.49 654.33-28.49L654.33-28.49 647.71-28.49 647.71-3.59 654.33-3.59Q656.62-3.59 658.48-4.43 660.34-5.27 661.65-6.87 662.97-8.47 663.68-10.79 664.39-13.11 664.39-16.04ZM687.36-32.08L699.37 0 695.93 0Q695.34 0 694.99-0.29 694.63-0.59 694.44-1.03L694.44-1.03 691.7-8.74 678.47-8.74 675.76-1.05Q675.62-0.63 675.21-0.32 674.81 0 674.25 0L674.25 0 670.81 0 682.84-32.08 687.36-32.08ZM684.14-24.8L679.6-11.91 690.58-11.91 686.04-24.83Q685.8-25.42 685.55-26.2 685.31-26.98 685.09-27.88L685.09-27.88Q684.84-26.95 684.6-26.17 684.36-25.39 684.14-24.8L684.14-24.8ZM700.13-32.08L723.32-32.08 723.32-28.37 713.97-28.37 713.97 0 709.5 0 709.5-28.37 700.13-28.37 700.13-32.08ZM740.65-32.08L752.66 0 749.22 0Q748.63 0 748.28-0.29 747.93-0.59 747.73-1.03L747.73-1.03 745-8.74 731.76-8.74 729.05-1.05Q728.91-0.63 728.5-0.32 728.1 0 727.54 0L727.54 0 724.1 0 736.13-32.08 740.65-32.08ZM737.43-24.8L732.89-11.91 743.87-11.91 739.33-24.83Q739.09-25.42 738.84-26.2 738.6-26.98 738.38-27.88L738.38-27.88Q738.14-26.95 737.89-26.17 737.65-25.39 737.43-24.8L737.43-24.8ZM767.67-32.08L786.42-32.08 786.42-28.47 772.14-28.47 772.14-17.94 783.64-17.94 783.64-14.45 772.14-14.45 772.14-3.61 786.45-3.61 786.42 0 767.67 0 767.67-32.08ZM794.48-32.08L794.48-32.08Q795.04-32.08 795.33-31.95 795.62-31.81 795.99-31.32L795.99-31.32 813.42-7.32Q813.37-7.91 813.34-8.48 813.3-9.06 813.3-9.55L813.3-9.55 813.3-32.08 817.21-32.08 817.21 0 814.96 0Q814.45 0 814.09-0.17 813.74-0.34 813.4-0.78L813.4-0.78 795.96-24.71Q796.01-24.15 796.04-23.63 796.06-23.12 796.06-22.66L796.06-22.66 796.06 0 792.16 0 792.16-32.08 794.48-32.08ZM849.75-3.1L849.75-3.1Q847.4-1.37 844.75-0.51 842.1 0.34 839 0.34L839 0.34Q835.27 0.34 832.25-0.85 829.24-2.05 827.11-4.21 824.99-6.37 823.84-9.39 822.7-12.4 822.7-16.04L822.7-16.04Q822.7-19.7 823.81-22.72 824.92-25.73 826.98-27.89 829.04-30.05 831.97-31.25 834.9-32.45 838.54-32.45L838.54-32.45Q840.4-32.45 841.97-32.17 843.55-31.88 844.89-31.36 846.23-30.83 847.37-30.08 848.5-29.32 849.48-28.39L849.48-28.39 848.23-26.39Q847.94-25.9 847.45-25.78 846.96-25.66 846.4-26L846.4-26Q845.84-26.32 845.17-26.77 844.5-27.22 843.57-27.62 842.64-28.03 841.37-28.32 840.1-28.61 838.37-28.61L838.37-28.61Q835.83-28.61 833.77-27.73 831.7-26.86 830.25-25.22 828.8-23.58 828.02-21.25 827.24-18.92 827.24-16.04L827.24-16.04Q827.24-13.04 828.05-10.66 828.87-8.28 830.4-6.63 831.92-4.98 834.07-4.11 836.22-3.25 838.88-3.25L838.88-3.25Q840.93-3.25 842.54-3.72 844.16-4.2 845.72-5.05L845.72-5.05 845.72-12.08 841.1-12.08Q840.66-12.08 840.4-12.33 840.13-12.57 840.13-12.94L840.13-12.94 840.13-15.45 849.75-15.45 849.75-3.1ZM860.88-32.08L860.88 0 856.43 0 856.43-32.08 860.88-32.08ZM870.88-32.08L870.88-32.08Q871.45-32.08 871.74-31.95 872.03-31.81 872.4-31.32L872.4-31.32 889.83-7.32Q889.78-7.91 889.74-8.48 889.71-9.06 889.71-9.55L889.71-9.55 889.71-32.08 893.61-32.08 893.61 0 891.37 0Q890.85 0 890.5-0.17 890.15-0.34 889.81-0.78L889.81-0.78 872.37-24.71Q872.42-24.15 872.45-23.63 872.47-23.12 872.47-22.66L872.47-22.66 872.47 0 868.56 0 868.56-32.08 870.88-32.08ZM900.76-32.08L919.51-32.08 919.51-28.47 905.23-28.47 905.23-17.94 916.73-17.94 916.73-14.45 905.23-14.45 905.23-3.61 919.54-3.61 919.51 0 900.76 0 900.76-32.08ZM925.18-32.08L943.93-32.08 943.93-28.47 929.64-28.47 929.64-17.94 941.14-17.94 941.14-14.45 929.64-14.45 929.64-3.61 943.95-3.61 943.93 0 925.18 0 925.18-32.08ZM957.06-13.33L954.08-13.33 954.08 0 949.64 0 949.64-32.08 958.43-32.08Q961.36-32.08 963.49-31.46 965.63-30.83 967.01-29.68 968.39-28.52 969.05-26.87 969.7-25.22 969.7-23.17L969.7-23.17Q969.7-21.48 969.2-20.02 968.7-18.55 967.76-17.38 966.82-16.21 965.46-15.37 964.09-14.53 962.36-14.09L962.36-14.09Q962.77-13.82 963.14-13.49 963.5-13.16 963.85-12.7L963.85-12.7 972.46 0 968.51 0Q967.36 0 966.73-0.9L966.73-0.9 959.13-12.33Q958.77-12.87 958.34-13.1 957.91-13.33 957.06-13.33L957.06-13.33ZM954.08-28.59L954.08-16.58 958.25-16.58Q960.01-16.58 961.34-17.03 962.67-17.48 963.58-18.31 964.48-19.14 964.93-20.3 965.38-21.46 965.38-22.85L965.38-22.85Q965.38-28.59 958.43-28.59L958.43-28.59 954.08-28.59Z" opacity="1" transform="matrix(1,0,0,1,0,0)" fill="#ffffff" class="wordmark-text-0" data-fill-palette-color="primary" id="text-0"></path></svg></g></svg></g><g transform="matrix(1,0,0,1,3.5,20.114876314298407)"><svg viewBox="0 0 388.52 13.269927301245836" height="13.269927301245836" width="388.52"><g transform="matrix(1,0,0,1,0,0)"><svg width="388.52" viewBox="-3.15 -39.6 1562.22 54.2" height="13.269927301245836" data-palette-color="#00ccff"><path d="M19.4-9L19.4-9Q19.4-10.8 18.48-12.05 17.55-13.3 16.15-14.33 14.75-15.35 13.13-16.3 11.5-17.25 10.1-18.5 8.7-19.75 7.78-21.45 6.85-23.15 6.85-25.65L6.85-25.65Q6.85-28.3 7.83-30.2 8.8-32.1 10.48-33.3 12.15-34.5 14.43-35.05 16.7-35.6 19.25-35.6L19.25-35.6Q22.15-35.6 24.45-35.15 26.75-34.7 28.05-34L28.05-34 26.05-30.45Q25.05-31 23.08-31.5 21.1-32 18.5-32L18.5-32Q15.2-32 13.13-30.5 11.05-29 11.05-26.15L11.05-26.15Q11.05-24.3 11.98-23.03 12.9-21.75 14.3-20.73 15.7-19.7 17.32-18.75 18.95-17.8 20.35-16.57 21.75-15.35 22.68-13.65 23.6-11.95 23.6-9.5L23.6-9.5Q23.6-4.65 20.1-2.02 16.6 0.6 10.05 0.6L10.05 0.6Q6.7 0.6 4.38 0.03 2.05-0.55 0.85-1.25L0.85-1.25 2.9-4.9Q4.05-4.25 6.03-3.63 8-3 10.7-3L10.7-3Q12.25-3 13.8-3.28 15.35-3.55 16.6-4.25 17.85-4.95 18.63-6.1 19.4-7.25 19.4-9ZM74.98-24.45L71.83-9.85Q71.43-8 71.28-6.1 71.13-4.2 71.13-2.55L71.13-2.55Q71.13-1.8 71.13-1.13 71.13-0.45 71.23 0.1L71.23 0.1 68.43 0.1 67.73-4.25 67.53-4.25Q66.93-3.4 66.05-2.53 65.18-1.65 64.13-0.95 63.08-0.25 61.88 0.18 60.68 0.6 59.33 0.6L59.33 0.6Q53.38 0.6 53.38-7.15L53.38-7.15Q53.38-10.35 54.2-13.65 55.03-16.95 56.75-19.6 58.48-22.25 61.2-23.95 63.93-25.65 67.78-25.65L67.78-25.65Q69.18-25.65 71.2-25.33 73.23-25 74.98-24.45L74.98-24.45ZM60.48-2.6L60.48-2.6Q61.68-2.6 62.78-3.18 63.88-3.75 64.85-4.6 65.83-5.45 66.58-6.43 67.33-7.4 67.78-8.25L67.78-8.25 70.58-21.75Q69.08-22.45 66.78-22.45L66.78-22.45Q64.48-22.45 62.73-21.1 60.98-19.75 59.78-17.57 58.58-15.4 57.98-12.65 57.38-9.9 57.38-7.15L57.38-7.15Q57.38-5.25 58.13-3.93 58.88-2.6 60.48-2.6ZM108.35-25L110.95-10.35 111.4-5.6 111.5-5.6 113.65-10.45 122.1-25 126.4-25 110.8 0.55 109.2 0.55 104.35-25 108.35-25ZM152.28 0L157.58-25 161.33-25 156.03 0 152.28 0ZM158.38-32.65L158.38-32.65Q158.38-33.8 159.15-34.6 159.93-35.4 161.08-35.4L161.08-35.4Q162.23-35.4 163.03-34.6 163.83-33.8 163.83-32.65L163.83-32.65Q163.83-31.5 163.03-30.73 162.23-29.95 161.08-29.95L161.08-29.95Q159.93-29.95 159.15-30.73 158.38-31.5 158.38-32.65ZM208.7 0L204.95 0 208.3-15.8Q208.5-16.7 208.65-17.57 208.8-18.45 208.8-19.15L208.8-19.15Q208.8-20.6 208.13-21.5 207.45-22.4 205.6-22.4L205.6-22.4Q204.3-22.4 203.05-21.8 201.8-21.2 200.7-20.28 199.6-19.35 198.73-18.23 197.85-17.1 197.25-16L197.25-16 193.95 0 190.2 0 195.5-25 198.1-25 197.9-20.7 198.1-20.7Q198.75-21.5 199.65-22.38 200.55-23.25 201.68-23.95 202.8-24.65 204.2-25.13 205.6-25.6 207.3-25.6L207.3-25.6Q209.8-25.6 211.25-24.4 212.7-23.2 212.7-20.2L212.7-20.2Q212.7-18.7 212.25-16.6L212.25-16.6 208.7 0ZM264.93-23.9L259.63 1.15Q258.58 6.05 256 8.33 253.43 10.6 249.18 10.6L249.18 10.6Q245.93 10.6 243.83 9.78 241.73 8.95 240.63 8.35L240.63 8.35 242.28 5.55Q242.68 5.75 243.25 6.08 243.83 6.4 244.65 6.7 245.48 7 246.65 7.2 247.83 7.4 249.43 7.4L249.43 7.4Q251.93 7.4 253.63 5.6 255.33 3.8 256.18-0.05L256.18-0.05 257.08-4.25 256.88-4.25Q256.18-3.3 255.35-2.45 254.53-1.6 253.53-0.93 252.53-0.25 251.35 0.15 250.18 0.55 248.78 0.55L248.78 0.55Q246.08 0.55 244.43-1.4 242.78-3.35 242.78-6.95L242.78-6.95Q242.78-10.3 243.7-13.6 244.63-16.9 246.45-19.53 248.28-22.15 250.95-23.8 253.63-25.45 257.13-25.45L257.13-25.45Q259.83-25.45 261.68-25 263.53-24.55 264.93-23.9L264.93-23.9ZM250.18-2.65L250.18-2.65Q251.43-2.65 252.65-3.3 253.88-3.95 254.9-4.98 255.93-6 256.75-7.2 257.58-8.4 258.13-9.45L258.13-9.45 260.68-21.5Q259.88-21.95 258.73-22.1 257.58-22.25 256.38-22.25L256.38-22.25Q254.33-22.25 252.58-21.05 250.83-19.85 249.55-17.82 248.28-15.8 247.53-13.15 246.78-10.5 246.78-7.6L246.78-7.6Q246.78-5.3 247.7-3.98 248.63-2.65 250.18-2.65ZM333.53-21.8L334.28-25 337.98-25 339.03-29.95 343.03-31.1 341.73-25 348.28-25 347.53-21.8 341.03-21.8 337.88-6.7Q337.78-6.1 337.71-5.6 337.63-5.1 337.63-4.7L337.63-4.7Q337.63-3.5 338.18-3.05 338.73-2.6 339.83-2.6L339.83-2.6Q341.03-2.6 342.03-2.9 343.03-3.2 344.03-3.8L344.03-3.8 344.03-0.75Q342.98-0.15 341.33 0.23 339.68 0.6 338.18 0.6L338.18 0.6Q333.63 0.6 333.63-3.55L333.63-3.55Q333.63-4.4 333.88-5.65L333.88-5.65 337.28-21.8 333.53-21.8ZM393.06 0L389.31 0 392.31-14.25Q392.61-15.75 392.81-16.93 393.01-18.1 393.01-19L393.01-19Q393.01-20.85 392.26-21.63 391.51-22.4 389.91-22.4L389.91-22.4Q388.61-22.4 387.26-21.73 385.91-21.05 384.66-20 383.41-18.95 382.43-17.65 381.46-16.35 380.96-15.15L380.96-15.15 377.81 0 374.06 0 381.46-35 385.21-35 382.11-20.7 382.31-20.7Q382.96-21.5 383.88-22.35 384.81-23.2 386.01-23.93 387.21-24.65 388.61-25.13 390.01-25.6 391.66-25.6L391.66-25.6Q394.11-25.6 395.51-24.43 396.91-23.25 396.91-20.15L396.91-20.15Q396.91-18.05 396.26-15.1L396.26-15.1 393.06 0ZM442.83-4.85L444.03-2.45Q442.28-0.95 439.91-0.18 437.53 0.6 435.13 0.6L435.13 0.6Q431.13 0.6 429.11-1.7 427.08-4 427.08-8.1L427.08-8.1Q427.08-12.2 428.23-15.45 429.38-18.7 431.26-20.95 433.13-23.2 435.51-24.4 437.88-25.6 440.38-25.6L440.38-25.6Q442.18-25.6 443.51-25.1 444.83-24.6 445.68-23.78 446.53-22.95 446.93-21.88 447.33-20.8 447.33-19.6L447.33-19.6Q447.33-16.05 443.88-14.03 440.43-12 433.83-12L433.83-12Q433.23-12 432.58-12.03 431.93-12.05 431.23-12.1L431.23-12.1Q431.03-11.15 430.93-10.3 430.83-9.45 430.83-8.8L430.83-8.8Q430.83-6.05 432.08-4.33 433.33-2.6 435.98-2.6L435.98-2.6Q438.18-2.6 440.01-3.33 441.83-4.05 442.83-4.85L442.83-4.85ZM439.78-22.4L439.78-22.4Q437.03-22.4 435.01-20.53 432.98-18.65 431.93-14.9L431.93-14.9Q433.83-14.9 435.88-15 437.93-15.1 439.61-15.53 441.28-15.95 442.38-16.88 443.48-17.8 443.48-19.45L443.48-19.45Q443.48-19.95 443.31-20.48 443.13-21 442.73-21.43 442.33-21.85 441.61-22.13 440.88-22.4 439.78-22.4ZM521.68-35L522.58-11.65 522.13-5.85 522.18-5.85 524.13-11.75 535.88-35 538.03-35 539.88-11.65 539.43-5.85 539.48-5.85 541.48-11.75 552.13-35 556.23-35 539.43 0.55 537.23 0.55 535.33-22.9 535.63-28.2 535.43-28.2 533.43-22.85 521.73 0.55 519.53 0.55 517.58-35 521.68-35ZM578.26-7.8L578.26-7.8Q578.26-11.75 579.28-15.03 580.31-18.3 582.11-20.65 583.91-23 586.28-24.3 588.66-25.6 591.36-25.6L591.36-25.6Q593.46-25.6 594.93-24.93 596.41-24.25 597.33-23.08 598.26-21.9 598.66-20.38 599.06-18.85 599.06-17.2L599.06-17.2Q599.06-13.45 598.08-10.2 597.11-6.95 595.38-4.55 593.66-2.15 591.36-0.78 589.06 0.6 586.36 0.6L586.36 0.6Q584.11 0.6 582.58-0.13 581.06-0.85 580.08-2.05 579.11-3.25 578.68-4.75 578.26-6.25 578.26-7.8ZM582.26-8.7L582.26-8.7Q582.26-5.75 583.36-4.17 584.46-2.6 586.86-2.6L586.86-2.6Q588.51-2.6 589.98-3.78 591.46-4.95 592.58-6.95 593.71-8.95 594.38-11.53 595.06-14.1 595.06-16.9L595.06-16.9Q595.06-19.45 594.13-20.93 593.21-22.4 590.61-22.4L590.61-22.4Q588.96-22.4 587.46-21.28 585.96-20.15 584.78-18.25 583.61-16.35 582.93-13.88 582.26-11.4 582.26-8.7ZM645.63-25L644.63-21.7Q644.18-21.8 643.71-21.85 643.23-21.9 642.83-21.9L642.83-21.9Q640.28-21.9 638.43-20.3 636.58-18.7 635.53-16.4L635.53-16.4 632.08 0 628.33 0 633.63-25 636.23-25 636.23-20.7 636.43-20.7Q637.03-21.65 637.73-22.48 638.43-23.3 639.28-23.95 640.13-24.6 641.13-24.98 642.13-25.35 643.33-25.35L643.33-25.35Q644.43-25.35 645.63-25L645.63-25ZM681.51-35L675.41-5.95Q675.26-5.1 675.26-4.55L675.26-4.55Q675.26-3.6 675.59-3.18 675.91-2.75 676.46-2.75L676.46-2.75Q677.46-2.75 678.14-2.88 678.81-3 679.76-3.35L679.76-3.35 679.76-0.5Q679.31-0.25 678.71-0.08 678.11 0.1 677.49 0.2 676.86 0.3 676.24 0.38 675.61 0.45 675.11 0.45L675.11 0.45Q673.36 0.45 672.31-0.35 671.26-1.15 671.26-3.3L671.26-3.3Q671.26-4.3 671.56-5.75L671.56-5.75 677.76-35 681.51-35ZM734.69-35L729.09-8.6Q728.69-6.65 728.49-4.95 728.29-3.25 728.29-1.8L728.29-1.8Q728.29-1.25 728.31-0.8 728.34-0.35 728.39 0.1L728.39 0.1 725.89 0.1 725.19-4.25 724.99-4.25Q724.39-3.4 723.49-2.53 722.59-1.65 721.49-0.95 720.39-0.25 719.16 0.18 717.94 0.6 716.64 0.6L716.64 0.6Q713.89 0.6 712.26-1.43 710.64-3.45 710.64-7.85L710.64-7.85Q710.64-10.8 711.49-13.93 712.34-17.05 713.99-19.6 715.64-22.15 718.11-23.8 720.59-25.45 723.84-25.45L723.84-25.45Q724.74-25.45 725.39-25.4 726.04-25.35 726.61-25.25 727.19-25.15 727.69-24.98 728.19-24.8 728.74-24.6L728.74-24.6 730.94-35 734.69-35ZM718.04-2.6L718.04-2.6Q719.09-2.6 720.19-3.18 721.29-3.75 722.26-4.6 723.24-5.45 724.01-6.43 724.79-7.4 725.24-8.25L725.24-8.25 728.04-21.25Q727.19-21.8 726.11-22.03 725.04-22.25 723.29-22.25L723.29-22.25Q721.29-22.25 719.69-21.03 718.09-19.8 716.96-17.75 715.84-15.7 715.24-13.05 714.64-10.4 714.64-7.6L714.64-7.6Q714.64-5.55 715.44-4.08 716.24-2.6 718.04-2.6ZM814.54-21.8L809.64-21.8 805.64 1.7Q805.34 3.55 804.81 5.13 804.29 6.7 803.44 7.88 802.59 9.05 801.29 9.73 799.99 10.4 798.14 10.4L798.14 10.4Q796.64 10.4 795.36 10.18 794.09 9.95 792.99 9.4L792.99 9.4 794.09 6.6Q795.09 6.95 795.91 7.08 796.74 7.2 797.94 7.2L797.94 7.2Q799.84 7.2 800.79 5.38 801.74 3.55 802.39-0.4L802.39-0.4 805.89-21.8 802.04-21.8 802.69-25 806.34-25 806.99-28.35Q807.34-30.2 807.84-31.55 808.34-32.9 809.16-33.8 809.99-34.7 811.21-35.15 812.44-35.6 814.19-35.6L814.19-35.6Q815.84-35.6 817.39-35.27 818.94-34.95 820.19-34.4L820.19-34.4 819.09-31.45Q816.64-32.4 814.44-32.4L814.44-32.4Q812.59-32.4 811.74-31.13 810.89-29.85 810.44-27.05L810.44-27.05 810.09-25 815.14-25 814.54-21.8ZM857.56-25L856.56-21.7Q856.11-21.8 855.64-21.85 855.16-21.9 854.76-21.9L854.76-21.9Q852.21-21.9 850.36-20.3 848.51-18.7 847.46-16.4L847.46-16.4 844.01 0 840.26 0 845.56-25 848.16-25 848.16-20.7 848.36-20.7Q848.96-21.65 849.66-22.48 850.36-23.3 851.21-23.95 852.06-24.6 853.06-24.98 854.06-25.35 855.26-25.35L855.26-25.35Q856.36-25.35 857.56-25L857.56-25ZM883.19-7.8L883.19-7.8Q883.19-11.75 884.21-15.03 885.24-18.3 887.04-20.65 888.84-23 891.21-24.3 893.59-25.6 896.29-25.6L896.29-25.6Q898.39-25.6 899.86-24.93 901.34-24.25 902.26-23.08 903.19-21.9 903.59-20.38 903.99-18.85 903.99-17.2L903.99-17.2Q903.99-13.45 903.01-10.2 902.04-6.95 900.31-4.55 898.59-2.15 896.29-0.78 893.99 0.6 891.29 0.6L891.29 0.6Q889.04 0.6 887.51-0.13 885.99-0.85 885.01-2.05 884.04-3.25 883.61-4.75 883.19-6.25 883.19-7.8ZM887.19-8.7L887.19-8.7Q887.19-5.75 888.29-4.17 889.39-2.6 891.79-2.6L891.79-2.6Q893.44-2.6 894.91-3.78 896.39-4.95 897.51-6.95 898.64-8.95 899.31-11.53 899.99-14.1 899.99-16.9L899.99-16.9Q899.99-19.45 899.06-20.93 898.14-22.4 895.54-22.4L895.54-22.4Q893.89-22.4 892.39-21.28 890.89-20.15 889.71-18.25 888.54-16.35 887.86-13.88 887.19-11.4 887.19-8.7ZM950.47 0L946.72 0 949.72-14.15Q950.12-15.9 950.32-17.25 950.52-18.6 950.52-19.6L950.52-19.6Q950.52-20.95 950.02-21.68 949.52-22.4 948.32-22.4L948.32-22.4Q947.07-22.4 945.87-21.75 944.67-21.1 943.62-20.13 942.57-19.15 941.69-18.05 940.82-16.95 940.32-16.05L940.32-16.05 937.02 0 933.27 0 938.57-25 941.22-25 940.92-20.7 941.12-20.7Q941.92-21.5 942.84-22.38 943.77-23.25 944.89-23.95 946.02-24.65 947.34-25.13 948.67-25.6 950.27-25.6L950.27-25.6Q952.52-25.6 953.29-24.2 954.07-22.8 954.07-20.3L954.07-20.3Q954.82-21.25 955.82-22.2 956.82-23.15 957.99-23.9 959.17-24.65 960.47-25.13 961.77-25.6 963.07-25.6L963.07-25.6Q965.37-25.6 966.59-24.53 967.82-23.45 967.82-20.55L967.82-20.55Q967.82-18.45 967.07-15L967.07-15 963.92 0 960.17 0 963.32-15.05Q963.62-16.5 963.79-17.65 963.97-18.8 963.97-19.65L963.97-19.65Q963.97-21 963.42-21.7 962.87-22.4 961.57-22.4L961.57-22.4Q960.52-22.4 959.34-21.73 958.17-21.05 957.07-20.05 955.97-19.05 955.09-17.9 954.22-16.75 953.72-15.75L953.72-15.75 950.47 0ZM1036.72 0.05L1044.17-35Q1046.07-35.25 1048.47-35.33 1050.87-35.4 1052.82-35.4L1052.82-35.4Q1055.77-35.4 1058.17-34.63 1060.57-33.85 1062.24-32.25 1063.92-30.65 1064.82-28.2 1065.72-25.75 1065.72-22.45L1065.72-22.45Q1065.72-20.25 1065.32-17.68 1064.92-15.1 1063.99-12.58 1063.07-10.05 1061.52-7.7 1059.97-5.35 1057.67-3.53 1055.37-1.7 1052.27-0.63 1049.17 0.45 1045.12 0.45L1045.12 0.45Q1044.37 0.45 1043.14 0.43 1041.92 0.4 1040.72 0.35L1040.72 0.35Q1037.22 0.15 1036.72 0.05L1036.72 0.05ZM1052.52-31.7L1052.52-31.7Q1051.92-31.7 1051.17-31.68 1050.42-31.65 1049.72-31.63 1049.02-31.6 1048.37-31.55 1047.72-31.5 1047.37-31.45L1047.37-31.45 1041.47-3.45Q1041.67-3.4 1042.27-3.38 1042.87-3.35 1043.54-3.33 1044.22-3.3 1044.84-3.28 1045.47-3.25 1045.72-3.25L1045.72-3.25Q1050.07-3.25 1053.07-5.05 1056.07-6.85 1057.94-9.6 1059.82-12.35 1060.67-15.65 1061.52-18.95 1061.52-21.9L1061.52-21.9Q1061.52-24.15 1061.02-25.95 1060.52-27.75 1059.44-29.03 1058.37-30.3 1056.67-31 1054.97-31.7 1052.52-31.7ZM1115.54-24.45L1112.39-9.85Q1111.99-8 1111.84-6.1 1111.69-4.2 1111.69-2.55L1111.69-2.55Q1111.69-1.8 1111.69-1.13 1111.69-0.45 1111.79 0.1L1111.79 0.1 1108.99 0.1 1108.29-4.25 1108.09-4.25Q1107.49-3.4 1106.62-2.53 1105.74-1.65 1104.69-0.95 1103.64-0.25 1102.44 0.18 1101.24 0.6 1099.89 0.6L1099.89 0.6Q1093.94 0.6 1093.94-7.15L1093.94-7.15Q1093.94-10.35 1094.77-13.65 1095.59-16.95 1097.32-19.6 1099.04-22.25 1101.77-23.95 1104.49-25.65 1108.34-25.65L1108.34-25.65Q1109.74-25.65 1111.77-25.33 1113.79-25 1115.54-24.45L1115.54-24.45ZM1101.04-2.6L1101.04-2.6Q1102.24-2.6 1103.34-3.18 1104.44-3.75 1105.42-4.6 1106.39-5.45 1107.14-6.43 1107.89-7.4 1108.34-8.25L1108.34-8.25 1111.14-21.75Q1109.64-22.45 1107.34-22.45L1107.34-22.45Q1105.04-22.45 1103.29-21.1 1101.54-19.75 1100.34-17.57 1099.14-15.4 1098.54-12.65 1097.94-9.9 1097.94-7.15L1097.94-7.15Q1097.94-5.25 1098.69-3.93 1099.44-2.6 1101.04-2.6ZM1144.72-21.8L1145.47-25 1149.17-25 1150.22-29.95 1154.22-31.1 1152.92-25 1159.47-25 1158.72-21.8 1152.22-21.8 1149.07-6.7Q1148.97-6.1 1148.89-5.6 1148.82-5.1 1148.82-4.7L1148.82-4.7Q1148.82-3.5 1149.37-3.05 1149.92-2.6 1151.02-2.6L1151.02-2.6Q1152.22-2.6 1153.22-2.9 1154.22-3.2 1155.22-3.8L1155.22-3.8 1155.22-0.75Q1154.17-0.15 1152.52 0.23 1150.87 0.6 1149.37 0.6L1149.37 0.6Q1144.82 0.6 1144.82-3.55L1144.82-3.55Q1144.82-4.4 1145.07-5.65L1145.07-5.65 1148.47-21.8 1144.72-21.8ZM1207.29-24.45L1204.14-9.85Q1203.74-8 1203.59-6.1 1203.44-4.2 1203.44-2.55L1203.44-2.55Q1203.44-1.8 1203.44-1.13 1203.44-0.45 1203.54 0.1L1203.54 0.1 1200.74 0.1 1200.04-4.25 1199.84-4.25Q1199.24-3.4 1198.37-2.53 1197.49-1.65 1196.44-0.95 1195.39-0.25 1194.19 0.18 1192.99 0.6 1191.64 0.6L1191.64 0.6Q1185.69 0.6 1185.69-7.15L1185.69-7.15Q1185.69-10.35 1186.52-13.65 1187.34-16.95 1189.07-19.6 1190.79-22.25 1193.52-23.95 1196.24-25.65 1200.09-25.65L1200.09-25.65Q1201.49-25.65 1203.52-25.33 1205.54-25 1207.29-24.45L1207.29-24.45ZM1192.79-2.6L1192.79-2.6Q1193.99-2.6 1195.09-3.18 1196.19-3.75 1197.17-4.6 1198.14-5.45 1198.89-6.43 1199.64-7.4 1200.09-8.25L1200.09-8.25 1202.89-21.75Q1201.39-22.45 1199.09-22.45L1199.09-22.45Q1196.79-22.45 1195.04-21.1 1193.29-19.75 1192.09-17.57 1190.89-15.4 1190.29-12.65 1189.69-9.9 1189.69-7.15L1189.69-7.15Q1189.69-5.25 1190.44-3.93 1191.19-2.6 1192.79-2.6ZM1258.22-23.9L1252.92 1.15Q1251.87 6.05 1249.29 8.33 1246.72 10.6 1242.47 10.6L1242.47 10.6Q1239.22 10.6 1237.12 9.78 1235.02 8.95 1233.92 8.35L1233.92 8.35 1235.57 5.55Q1235.97 5.75 1236.54 6.08 1237.12 6.4 1237.94 6.7 1238.77 7 1239.94 7.2 1241.12 7.4 1242.72 7.4L1242.72 7.4Q1245.22 7.4 1246.92 5.6 1248.62 3.8 1249.47-0.05L1249.47-0.05 1250.37-4.25 1250.17-4.25Q1249.47-3.3 1248.64-2.45 1247.82-1.6 1246.82-0.93 1245.82-0.25 1244.64 0.15 1243.47 0.55 1242.07 0.55L1242.07 0.55Q1239.37 0.55 1237.72-1.4 1236.07-3.35 1236.07-6.95L1236.07-6.95Q1236.07-10.3 1236.99-13.6 1237.92-16.9 1239.74-19.53 1241.57-22.15 1244.24-23.8 1246.92-25.45 1250.42-25.45L1250.42-25.45Q1253.12-25.45 1254.97-25 1256.82-24.55 1258.22-23.9L1258.22-23.9ZM1243.47-2.65L1243.47-2.65Q1244.72-2.65 1245.94-3.3 1247.17-3.95 1248.19-4.98 1249.22-6 1250.04-7.2 1250.87-8.4 1251.42-9.45L1251.42-9.45 1253.97-21.5Q1253.17-21.95 1252.02-22.1 1250.87-22.25 1249.67-22.25L1249.67-22.25Q1247.62-22.25 1245.87-21.05 1244.12-19.85 1242.84-17.82 1241.57-15.8 1240.82-13.15 1240.07-10.5 1240.07-7.6L1240.07-7.6Q1240.07-5.3 1240.99-3.98 1241.92-2.65 1243.47-2.65ZM1303.05-4.85L1304.25-2.45Q1302.5-0.95 1300.12-0.18 1297.75 0.6 1295.35 0.6L1295.35 0.6Q1291.35 0.6 1289.32-1.7 1287.3-4 1287.3-8.1L1287.3-8.1Q1287.3-12.2 1288.45-15.45 1289.6-18.7 1291.47-20.95 1293.35-23.2 1295.72-24.4 1298.1-25.6 1300.6-25.6L1300.6-25.6Q1302.4-25.6 1303.72-25.1 1305.05-24.6 1305.9-23.78 1306.75-22.95 1307.15-21.88 1307.55-20.8 1307.55-19.6L1307.55-19.6Q1307.55-16.05 1304.1-14.03 1300.65-12 1294.05-12L1294.05-12Q1293.45-12 1292.8-12.03 1292.15-12.05 1291.45-12.1L1291.45-12.1Q1291.25-11.15 1291.15-10.3 1291.05-9.45 1291.05-8.8L1291.05-8.8Q1291.05-6.05 1292.3-4.33 1293.55-2.6 1296.2-2.6L1296.2-2.6Q1298.4-2.6 1300.22-3.33 1302.05-4.05 1303.05-4.85L1303.05-4.85ZM1300-22.4L1300-22.4Q1297.25-22.4 1295.22-20.53 1293.2-18.65 1292.15-14.9L1292.15-14.9Q1294.05-14.9 1296.1-15 1298.15-15.1 1299.82-15.53 1301.5-15.95 1302.6-16.88 1303.7-17.8 1303.7-19.45L1303.7-19.45Q1303.7-19.95 1303.52-20.48 1303.35-21 1302.95-21.43 1302.55-21.85 1301.82-22.13 1301.1-22.4 1300-22.4ZM1360.37-35L1354.77-8.6Q1354.37-6.65 1354.17-4.95 1353.97-3.25 1353.97-1.8L1353.97-1.8Q1353.97-1.25 1354-0.8 1354.02-0.35 1354.07 0.1L1354.07 0.1 1351.57 0.1 1350.87-4.25 1350.67-4.25Q1350.07-3.4 1349.17-2.53 1348.27-1.65 1347.17-0.95 1346.07-0.25 1344.85 0.18 1343.62 0.6 1342.32 0.6L1342.32 0.6Q1339.57 0.6 1337.95-1.43 1336.32-3.45 1336.32-7.85L1336.32-7.85Q1336.32-10.8 1337.17-13.93 1338.02-17.05 1339.67-19.6 1341.32-22.15 1343.8-23.8 1346.27-25.45 1349.52-25.45L1349.52-25.45Q1350.42-25.45 1351.07-25.4 1351.72-25.35 1352.3-25.25 1352.87-25.15 1353.37-24.98 1353.87-24.8 1354.42-24.6L1354.42-24.6 1356.62-35 1360.37-35ZM1343.72-2.6L1343.72-2.6Q1344.77-2.6 1345.87-3.18 1346.97-3.75 1347.95-4.6 1348.92-5.45 1349.7-6.43 1350.47-7.4 1350.92-8.25L1350.92-8.25 1353.72-21.25Q1352.87-21.8 1351.8-22.03 1350.72-22.25 1348.97-22.25L1348.97-22.25Q1346.97-22.25 1345.37-21.03 1343.77-19.8 1342.65-17.75 1341.52-15.7 1340.92-13.05 1340.32-10.4 1340.32-7.6L1340.32-7.6Q1340.32-5.55 1341.12-4.08 1341.92-2.6 1343.72-2.6ZM1411.7-35L1406.1-8.6Q1405.7-6.65 1405.5-4.95 1405.3-3.25 1405.3-1.8L1405.3-1.8Q1405.3-1.25 1405.32-0.8 1405.35-0.35 1405.4 0.1L1405.4 0.1 1402.9 0.1 1402.2-4.25 1402-4.25Q1401.4-3.4 1400.5-2.53 1399.6-1.65 1398.5-0.95 1397.4-0.25 1396.17 0.18 1394.95 0.6 1393.65 0.6L1393.65 0.6Q1390.9 0.6 1389.27-1.43 1387.65-3.45 1387.65-7.85L1387.65-7.85Q1387.65-10.8 1388.5-13.93 1389.35-17.05 1391-19.6 1392.65-22.15 1395.12-23.8 1397.6-25.45 1400.85-25.45L1400.85-25.45Q1401.75-25.45 1402.4-25.4 1403.05-25.35 1403.62-25.25 1404.2-25.15 1404.7-24.98 1405.2-24.8 1405.75-24.6L1405.75-24.6 1407.95-35 1411.7-35ZM1395.05-2.6L1395.05-2.6Q1396.1-2.6 1397.2-3.18 1398.3-3.75 1399.27-4.6 1400.25-5.45 1401.02-6.43 1401.8-7.4 1402.25-8.25L1402.25-8.25 1405.05-21.25Q1404.2-21.8 1403.12-22.03 1402.05-22.25 1400.3-22.25L1400.3-22.25Q1398.3-22.25 1396.7-21.03 1395.1-19.8 1393.97-17.75 1392.85-15.7 1392.25-13.05 1391.65-10.4 1391.65-7.6L1391.65-7.6Q1391.65-5.55 1392.45-4.08 1393.25-2.6 1395.05-2.6ZM1438.97-7.8L1438.97-7.8Q1438.97-11.75 1440-15.03 1441.02-18.3 1442.82-20.65 1444.62-23 1447-24.3 1449.37-25.6 1452.07-25.6L1452.07-25.6Q1454.17-25.6 1455.65-24.93 1457.12-24.25 1458.05-23.08 1458.97-21.9 1459.37-20.38 1459.77-18.85 1459.77-17.2L1459.77-17.2Q1459.77-13.45 1458.8-10.2 1457.82-6.95 1456.1-4.55 1454.37-2.15 1452.07-0.78 1449.77 0.6 1447.07 0.6L1447.07 0.6Q1444.82 0.6 1443.3-0.13 1441.77-0.85 1440.8-2.05 1439.82-3.25 1439.4-4.75 1438.97-6.25 1438.97-7.8ZM1442.97-8.7L1442.97-8.7Q1442.97-5.75 1444.07-4.17 1445.17-2.6 1447.57-2.6L1447.57-2.6Q1449.22-2.6 1450.7-3.78 1452.17-4.95 1453.3-6.95 1454.42-8.95 1455.1-11.53 1455.77-14.1 1455.77-16.9L1455.77-16.9Q1455.77-19.45 1454.85-20.93 1453.92-22.4 1451.32-22.4L1451.32-22.4Q1449.67-22.4 1448.17-21.28 1446.67-20.15 1445.5-18.25 1444.32-16.35 1443.65-13.88 1442.97-11.4 1442.97-8.7ZM1507.55 0L1503.8 0 1507.15-15.8Q1507.35-16.7 1507.5-17.57 1507.65-18.45 1507.65-19.15L1507.65-19.15Q1507.65-20.6 1506.97-21.5 1506.3-22.4 1504.45-22.4L1504.45-22.4Q1503.15-22.4 1501.9-21.8 1500.65-21.2 1499.55-20.28 1498.45-19.35 1497.57-18.23 1496.7-17.1 1496.1-16L1496.1-16 1492.8 0 1489.05 0 1494.35-25 1496.95-25 1496.75-20.7 1496.95-20.7Q1497.6-21.5 1498.5-22.38 1499.4-23.25 1500.52-23.95 1501.65-24.65 1503.05-25.13 1504.45-25.6 1506.15-25.6L1506.15-25.6Q1508.65-25.6 1510.1-24.4 1511.55-23.2 1511.55-20.2L1511.55-20.2Q1511.55-18.7 1511.1-16.6L1511.1-16.6 1507.55 0ZM1547.42-17.65L1551.07-35 1555.07-35 1551.42-17.65 1548.72-8.85 1546.42-8.85 1547.42-17.65ZM1543.57-2.3L1543.57-2.3Q1543.57-3.65 1544.37-4.42 1545.17-5.2 1546.47-5.2L1546.47-5.2Q1547.77-5.2 1548.57-4.42 1549.37-3.65 1549.37-2.3L1549.37-2.3Q1549.37-1 1548.57-0.2 1547.77 0.6 1546.47 0.6L1546.47 0.6Q1545.17 0.6 1544.37-0.2 1543.57-1 1543.57-2.3Z" opacity="1" transform="matrix(1,0,0,1,0,0)" fill="#00ccff" class="slogan-text-1" data-fill-palette-color="secondary" id="text-1"></path></svg></g></svg></g></svg></g></svg></g><g><svg viewBox="0 0 115.99737940644364 104.8816990385938" height="104.8816990385938" width="115.99737940644364"><g><svg xmlns="http://www.w3.org/2000/svg" xmlns:xlink="http://www.w3.org/1999/xlink" version="1.1" x="0" y="0" viewBox="17.741 20.83125836388334 64.51834035441101 58.335741636116666" enable-background="new 0 0 100 100" xml:space="preserve" height="104.8816990385938" width="115.99737940644364" class="icon-icon-0" data-fill-palette-color="accent" id="icon-0"><path d="M23.043 72.299C21.798 72.299 20.785 73.311 20.785 74.555S21.798 76.811 23.043 76.811C24.286 76.811 25.299 75.799 25.299 74.555S24.286 72.299 23.043 72.299M23.043 75.311A0.757 0.757 0 1 1 23.041 73.797 0.757 0.757 0 0 1 23.043 75.31M68.424 65.523C67.18 65.523 66.168 66.535 66.168 67.779S67.18 70.035 68.424 70.035 70.68 69.023 70.68 67.779 69.668 65.523 68.424 65.523M68.424 68.535A0.756 0.756 0 1 1 68.424 67.023 0.756 0.756 0 0 1 68.424 68.535M46.559 27.795A2.563 2.563 0 0 0 49.12 25.234 2.563 2.563 0 0 0 43.996 25.234 2.565 2.565 0 0 0 46.559 27.795M46.559 24.174A1.062 1.062 0 1 1 45.496 25.235C45.496 24.65 45.973 24.174 46.559 24.174M50.949 31.961C51.767 31.961 52.433 31.295 52.433 30.477S51.767 28.993 50.949 28.993 49.465 29.659 49.465 30.477 50.131 31.961 50.949 31.961M26.287 33.59C27.105 33.59 27.771 32.924 27.771 32.106S27.105 30.622 26.287 30.622 24.803 31.288 24.803 32.106 25.469 33.59 26.287 33.59M69.275 51.574C68.457 51.574 67.791 52.24 67.791 53.058S68.457 54.542 69.275 54.542 70.759 53.876 70.759 53.058 70.094 51.574 69.275 51.574M20.709 37.756C20.709 36.938 20.043 36.272 19.225 36.272S17.741 36.938 17.741 37.756 18.407 39.24 19.225 39.24 20.709 38.574 20.709 37.756M73.969 58.002C73.151 58.002 72.485 58.668 72.485 59.486S73.151 60.97 73.969 60.97 75.453 60.304 75.453 59.486 74.787 58.002 73.969 58.002M61.223 73.805C60.405 73.805 59.739 74.471 59.739 75.289S60.405 76.773 61.223 76.773 62.707 76.107 62.707 75.289 62.041 73.805 61.223 73.805M28.242 76.199C27.424 76.199 26.758 76.865 26.758 77.683S27.424 79.167 28.242 79.167 29.726 78.501 29.726 77.683 29.061 76.199 28.242 76.199M76.563 34.898L66.204 45.258A5.71 5.71 0 0 1 58.136 45.257 5.66 5.66 0 0 1 56.463 41.223C56.463 39.699 57.056 38.266 58.134 37.188L67.101 28.221A0.75 0.75 0 1 0 66.04 27.16L57.073 36.127A7 7 0 0 0 56.475 36.815C52.616 33.863 47.807 32.09 42.583 32.09 29.935 32.09 19.645 42.38 19.645 55.028S29.935 77.966 42.583 77.966 65.521 67.677 65.521 55.028C65.521 52.596 65.11 50.266 64.402 48.066A7.14 7.14 0 0 0 67.264 46.319L77.623 35.96A0.75 0.75 0 0 0 76.563 34.898M38.332 34.018C38.543 34.233 38.771 34.456 39.015 34.688 39.369 35.026 39.823 35.458 40.089 35.776 39.52 36.001 38.193 36.221 36.891 36.221 35.499 36.221 34.451 37.272 33.526 38.2 33.112 38.613 32.723 39.005 32.333 39.284 32.067 39.475 31.855 39.612 31.688 39.721 30.723 40.348 30.667 40.673 30.86 41.867A0.76 0.76 0 0 1 30.731 42.431 0.4 0.4 0 0 1 30.594 42.554C30.571 42.547 30.486 42.486 30.387 42.3 29.965 41.511 29.34 41.27 28.892 41.206 27.882 41.063 26.86 41.692 26.297 42.273 25.617 42.971 25.408 44.014 25.811 44.701 26.118 45.223 26.711 45.442 27.355 45.269 27.598 45.204 27.815 45.236 27.963 45.36A0.55 0.55 0 0 1 28.149 45.838C28.096 46.624 28.37 47.341 28.882 47.756 29.329 48.12 29.918 48.224 30.537 48.048 30.951 47.931 31.305 47.797 31.631 47.673 32.231 47.444 32.627 47.292 33.115 47.372 33.832 47.49 34.361 47.229 34.748 47.04 35.167 46.834 35.252 46.81 35.494 46.939 35.742 47.072 35.982 47.325 36.236 47.591 36.764 48.147 37.484 48.916 38.708 48.85 39.332 48.818 39.936 49.651 40.473 50.383 40.712 50.709 40.939 51.018 41.178 51.27 41.723 51.846 42.341 51.922 42.887 51.991 43.418 52.055 43.921 52.118 44.552 52.645 44.956 52.983 45.019 53.2 44.131 54.291 43.908 54.564 43.698 54.824 43.57 55.088 43.265 55.711 43.358 56.389 43.44 56.986 43.576 57.974 43.55 58.209 42.961 58.425 42.738 58.507 42.514 58.575 42.295 58.642 41.285 58.953 40.029 59.337 39.789 60.898 39.719 61.351 39.45 61.603 39.139 61.896 38.848 62.169 38.518 62.48 38.444 62.962L38.412 63.208C38.354 63.7 38.332 63.796 37.964 63.905 37.316 64.098 36.771 64.641 36.468 65.395A3.28 3.28 0 0 0 36.654 68.227C36.812 68.506 36.874 68.926 36.783 69.125 36.767 69.162 36.754 69.193 36.652 69.213 36.596 69.225 36.484 69.246 36.3 69.098 35.755 68.655 35.332 67.35 35.332 66.522 35.332 65.637 34.741 64.985 34.267 64.461 33.943 64.104 33.608 63.734 33.608 63.453 33.608 63.057 33.695 62.789 33.814 62.42 33.982 61.9 34.192 61.256 34.192 60.119 34.192 58.869 33.144 58.123 32.302 57.523 31.736 57.121 31.15 56.703 31.12 56.322 31.042 55.31 30.427 54.732 29.932 54.265 29.429 53.79 29.144 53.494 29.134 52.917 29.121 52.155 29.451 51.759 29.801 51.337 30.105 50.972 30.483 50.519 30.369 49.891 30.198 48.953 29.33 48.783 28.81 48.681 28.445 48.609 28.201 48.552 28.128 48.423 27.396 47.118 26.429 46.999 25.655 47.034 24.878 47.071 24.693 46.966 24.624 46.43 24.54 45.784 24.236 45.077 23.918 44.515 26.932 39.189 32.148 35.266 38.332 34.018M42.584 76.465C40.141 76.465 37.803 76.035 35.613 75.279 35.967 73.986 36.365 73.855 36.956 73.679 37.164 73.616 37.371 73.552 37.574 73.462 38.092 73.23 38.305 72.782 38.447 72.487 38.592 72.184 38.629 72.137 38.76 72.1 38.969 72.043 39.119 72.073 39.206 72.192 39.305 72.329 39.328 72.579 39.16 72.831L38.947 73.142C38.672 73.538 38.388 73.947 38.634 74.431 38.889 74.933 39.37 74.943 40.266 74.962 41.985 74.993 43.888 74.95 44.792 73.917 45.005 73.673 45.561 73.132 46.089 73.368 47.905 74.179 48.822 74.143 49.563 74.112 49.871 74.098 50.113 74.091 50.39 74.153 50.646 74.214 50.861 74.313 50.917 74.778A21.3 21.3 0 0 1 42.584 76.465M52.301 74.111C51.996 73.148 51.237 72.81 50.727 72.693 50.255 72.584 49.873 72.601 49.504 72.615 48.865 72.64 48.198 72.668 46.701 72 45.699 71.551 44.562 71.9 43.664 72.93 43.199 73.461 41.549 73.485 40.525 73.467 40.897 72.764 40.863 71.924 40.42 71.313 39.961 70.68 39.17 70.428 38.357 70.657 37.552 70.882 37.265 71.483 37.094 71.843 37.05 71.933 36.985 72.07 36.962 72.095 36.819 72.158 36.674 72.2 36.527 72.243 35.609 72.516 34.746 72.936 34.207 74.759 26.537 71.491 21.145 63.878 21.145 55.029 21.145 51.896 21.836 48.928 23.049 46.244 23.092 46.383 23.122 46.514 23.138 46.627 23.31 47.972 24.181 48.62 25.732 48.537 26.175 48.517 26.466 48.533 26.82 49.162 27.237 49.904 28.009 50.057 28.521 50.157 28.6 50.173 28.7 50.192 28.787 50.213L28.647 50.383C28.234 50.879 27.611 51.629 27.633 52.947 27.654 54.183 28.375 54.865 28.902 55.361 29.341 55.775 29.591 56.029 29.623 56.441 29.707 57.521 30.623 58.173 31.432 58.75 32.192 59.291 32.691 59.68 32.691 60.123 32.691 61.021 32.536 61.5 32.386 61.961 32.248 62.385 32.107 62.824 32.107 63.457 32.107 64.318 32.664 64.932 33.155 65.473 33.503 65.858 33.832 66.219 33.832 66.526 33.832 67.565 34.304 69.411 35.353 70.264 35.726 70.571 36.144 70.725 36.578 70.725 36.703 70.725 36.829 70.713 36.956 70.686 37.504 70.573 37.928 70.241 38.15 69.747 38.485 69.007 38.294 68.077 37.955 67.485A1.77 1.77 0 0 1 37.861 65.958C37.986 65.645 38.195 65.405 38.394 65.347 39.718 64.951 39.837 63.933 39.902 63.388L39.907 63.261A2.3 2.3 0 0 1 40.169 62.991C40.549 62.634 41.124 62.093 41.273 61.132 41.363 60.548 41.705 60.398 42.736 60.081 42.98 60.005 43.231 59.929 43.482 59.835 45.257 59.181 45.051 57.681 44.927 56.784 44.872 56.38 44.815 55.962 44.919 55.747 44.972 55.638 45.144 55.427 45.296 55.239 45.864 54.54 47.195 52.901 45.515 51.497 44.545 50.686 43.695 50.581 43.073 50.503 42.596 50.444 42.428 50.411 42.267 50.241 42.079 50.044 41.889 49.778 41.684 49.499 40.999 48.565 40.05 47.269 38.638 47.354 38.142 47.389 37.822 47.083 37.324 46.559 37.015 46.235 36.666 45.867 36.206 45.62 35.268 45.116 34.559 45.466 34.088 45.696 33.77 45.852 33.594 45.934 33.359 45.893 32.472 45.747 31.804 46.002 31.097 46.272 30.81 46.382 30.497 46.502 30.132 46.606 29.919 46.663 29.849 46.61 29.827 46.592 29.722 46.506 29.624 46.254 29.645 45.94A2.04 2.04 0 0 0 28.918 44.204C28.438 43.809 27.805 43.658 27.119 43.786A0.95 0.95 0 0 1 27.373 43.32C27.76 42.921 28.342 42.644 28.683 42.694 28.789 42.709 28.93 42.758 29.063 43.008 29.612 44.035 30.459 44.18 31.071 43.974 31.946 43.679 32.505 42.649 32.329 41.552 32.304 41.397 32.278 41.239 32.266 41.135 32.328 41.091 32.407 41.043 32.504 40.981 32.687 40.862 32.916 40.712 33.205 40.504 33.697 40.152 34.149 39.699 34.587 39.26 35.376 38.469 36.121 37.723 36.891 37.723 37.291 37.723 40.829 37.688 41.581 36.469 41.787 36.135 41.804 35.739 41.625 35.38 41.381 34.892 40.809 34.33 40.187 33.734A22 22 0 0 1 42.584 33.591C44.507 33.591 46.368 33.853 48.141 34.331 47.539 35.065 47.602 35.771 47.662 36.032 47.857 36.89 48.672 37.475 49.686 37.487 50.908 37.501 51.275 37.752 51.298 37.883L51.39 38.41C51.548 39.346 51.672 40.084 52.371 41.293 52.524 41.559 52.154 42.252 51.884 42.759 51.676 43.149 51.46 43.553 51.345 43.949 51.064 44.9 50.407 47.131 52.258 48.379 52.767 48.722 52.868 48.965 53.037 49.369 53.188 49.73 53.376 50.181 53.851 50.693 55.132 52.074 56.884 51.736 57.932 51.531L58.218 51.476C58.272 51.466 58.392 51.445 58.577 51.605 59.019 51.99 59.47 53.109 59.411 54.656 59.37 55.691 58.938 56.609 58.521 57.496 58.104 58.381 57.709 59.219 57.773 60.09L57.797 60.387C57.872 61.241 58.029 63.02 57.324 63.889 56.656 64.713 56.641 65.768 57.288 66.45 57.598 66.778 58.086 67.024 58.708 67.024 59.284 67.024 59.976 66.811 60.743 66.256 60.783 66.227 60.826 66.19 60.867 66.158A21.5 21.5 0 0 1 52.301 74.111M63.108 61.191C61.828 63.101 60.708 64.433 59.867 65.041 59.07 65.617 58.533 65.578 58.381 65.42 58.266 65.297 58.312 65.057 58.493 64.834 59.579 63.492 59.387 61.305 59.294 60.254L59.272 59.983C59.237 59.503 59.536 58.87 59.881 58.135 60.34 57.16 60.86 56.055 60.911 54.715 60.981 52.881 60.465 51.256 59.562 50.473 59.085 50.061 58.53 49.898 57.953 50L57.648 50.059C56.525 50.276 55.611 50.386 54.953 49.675 54.659 49.358 54.549 49.095 54.422 48.791 54.214 48.293 53.979 47.728 53.097 47.135 52.317 46.61 52.408 45.651 52.784 44.371 52.857 44.122 53.027 43.803 53.208 43.465 53.668 42.604 54.24 41.53 53.671 40.543 53.108 39.568 53.018 39.039 52.87 38.16L52.775 37.613C52.483 36.017 50.39 35.994 49.704 35.986 49.365 35.982 49.156 35.838 49.124 35.697 49.087 35.536 49.271 35.202 49.819 34.863A21.4 21.4 0 0 1 55.677 38.103 7.16 7.16 0 0 0 54.962 41.222C54.962 43.147 55.712 44.956 57.074 46.318A7.18 7.18 0 0 0 62.921 48.382C63.615 50.477 64.021 52.7 64.021 55.027 64.021 57.172 63.696 59.238 63.108 61.191M57.793 41.223A4.383 4.383 0 0 0 62.17 45.6C63.34 45.6 64.44 45.145 65.266 44.318A4.34 4.34 0 0 0 66.547 41.225C66.548 40.055 66.094 38.955 65.268 38.128S63.343 36.846 62.166 36.846A4.38 4.38 0 0 0 57.793 41.223M64.206 39.188C64.749 39.731 65.048 40.454 65.047 41.224A2.85 2.85 0 0 1 64.205 43.256 2.86 2.86 0 0 1 62.17 44.099 2.88 2.88 0 0 1 59.293 41.222 2.88 2.88 0 0 1 64.206 39.188M72.89 34.008L68.169 38.729A0.75 0.75 0 0 0 69.229 39.79L73.95 35.069A0.75 0.75 0 0 0 72.89 34.008M74.794 28.563A0.75 0.75 0 0 0 73.733 28.563L67.126 35.17A0.75 0.75 0 0 0 68.186 36.231L74.793 29.624A0.75 0.75 0 0 0 74.794 28.563M63.872 34.957A0.747 0.747 0 0 0 64.932 34.957L76.205 23.684A0.75 0.75 0 1 0 75.144 22.623L63.872 33.896A0.75 0.75 0 0 0 63.872 34.957M75.817 27.576A0.747 0.747 0 0 0 76.877 27.576L79.512 24.939A0.75 0.75 0 1 0 78.451 23.878L75.816 26.515A0.75 0.75 0 0 0 75.817 27.576M72.469 22.545A0.75 0.75 0 0 0 73 22.324L73.211 22.111A0.75 0.75 0 1 0 72.148 21.052L71.937 21.265A0.75 0.75 0 0 0 72.469 22.545M80.097 26.799L78.82 28.078A0.75 0.75 0 0 0 79.884 29.135L81.161 27.856A0.75 0.75 0 0 0 80.097 26.799M79.237 32.225L78.516 32.946A0.75 0.75 0 0 0 79.576 34.007L80.297 33.286A0.75 0.75 0 0 0 79.237 32.225M76.934 29.961L74.657 32.24A0.75 0.75 0 0 0 75.719 33.3L77.996 31.02A0.75 0.75 0 0 0 76.934 29.961M82.04 21.354A0.75 0.75 0 0 0 80.979 21.354L80.59 21.743A0.75 0.75 0 0 0 81.65 22.804L82.039 22.415A0.75 0.75 0 0 0 82.04 21.354M68.303 26.709A0.74 0.74 0 0 0 68.833 26.49L70.778 24.545A0.75 0.75 0 1 0 69.717 23.484L67.772 25.429A0.75 0.75 0 0 0 68.303 26.709" fill="#00ccff" data-fill-palette-color="accent"></path></svg></g></svg></g></svg></g><defs></defs></svg><rect width="395.52" height="80.29536617055497" fill="none" stroke="none" visibility="hidden"></rect></g></svg></g></svg>